<svg width="400" height="700" viewBox="0 0 400 700" fill="none" xmlns="http://www.w3.org/2000/svg">
<rect x="5" y="5" width="390" height="690" rx="20" fill="white"/>
<path d="M58 258.98C61.198 251.671 68.7871 244.711 73.941 238.878C101.264 207.952 133.026 181.303 160.87 150.849C173.371 137.176 184.414 122.843 194.244 107.188C196.307 103.902 200.019 90.7497 200.762 100.591C206.211 172.791 206.113 244.897 208.144 317.247C210.376 396.78 212.07 476.241 212.07 555.812" stroke="#5BE545" stroke-width="10" stroke-linecap="round"/>
<path d="M79.2026 561.466C152.282 561.466 225.454 560.053 298.45 560.053C313.125 560.053 327.357 558.64 342.111 558.64" stroke="#5BE545" stroke-width="10" stroke-linecap="round"/>
<rect x="5" y="5" width="390" height="690" rx="20" stroke="#5BE545" stroke-width="10"/>
</svg>
