<svg width="400" height="700" viewBox="0 0 400 700" fill="none" xmlns="http://www.w3.org/2000/svg">
<rect x="5" y="5" width="390" height="690" rx="20" fill="white"/>
<g filter="url(#filter0_d_104_374)">
<path d="M245.944 67.481C238.579 65.8444 230.942 62.6237 223.014 61.2774C209.318 58.9516 195.237 59.0001 181.394 59.0001C154.59 59.0001 135.122 73.2644 117.709 93.2378C111.067 100.857 106.521 111.383 102.082 120.408C94.7757 135.265 95.0034 150.799 89.5179 165.954C84.8789 178.77 81.3098 191.593 78.4456 204.903C76.7841 212.624 73.7607 220.032 73.4984 227.99C73.1454 238.696 72.8533 246.607 70.2002 256.888C65.8773 273.64 69.2579 294.913 69.2579 312.093C69.2579 326.934 69.2579 341.776 69.2579 356.617C69.2579 406.953 69.2579 457.289 69.2579 507.625C69.2579 517.926 65.5439 538.211 72.3204 547.359C84.3263 563.567 105.093 575.188 120.85 587.487C134.315 597.996 149.054 613.745 166.317 617.798C180.258 621.071 195.961 622.981 210.292 622.981C218.803 622.981 238.81 627.143 245.472 620.625C286.904 580.094 309.697 528.924 321.33 472.523C330.57 427.723 332.166 384.601 332.166 339.106C332.166 291.44 332.166 243.774 332.166 196.108C332.166 178.204 332.166 160.3 332.166 142.396C332.166 132.275 331.122 124.529 326.512 115.54C322.672 108.052 319.783 99.5744 312.063 94.9654C299.74 87.6084 284.525 81.6154 270.915 76.9042C260.184 73.1895 249.942 68.8339 238.876 66.0675" stroke="#FF0000" stroke-width="10" stroke-linecap="round"/>
</g>
<rect x="5" y="5" width="390" height="690" rx="20" stroke="#FF0000" stroke-width="10"/>
<defs>
<filter id="filter0_d_104_374" x="58.9995" y="53.9999" width="282.167" height="583.29" filterUnits="userSpaceOnUse" color-interpolation-filters="sRGB">
<feFlood flood-opacity="0" result="BackgroundImageFix"/>
<feColorMatrix in="SourceAlpha" type="matrix" values="0 0 0 0 0 0 0 0 0 0 0 0 0 0 0 0 0 0 127 0" result="hardAlpha"/>
<feOffset dy="4"/>
<feGaussianBlur stdDeviation="2"/>
<feComposite in2="hardAlpha" operator="out"/>
<feColorMatrix type="matrix" values="0 0 0 0 0 0 0 0 0 0 0 0 0 0 0 0 0 0 0.25 0"/>
<feBlend mode="normal" in2="BackgroundImageFix" result="effect1_dropShadow_104_374"/>
<feBlend mode="normal" in="SourceGraphic" in2="effect1_dropShadow_104_374" result="shape"/>
</filter>
</defs>
</svg>
