<svg width="400" height="700" viewBox="0 0 400 700" fill="none" xmlns="http://www.w3.org/2000/svg">
<g clip-path="url(#clip0_105_915)">
<rect width="400" height="700" rx="25" fill="white"/>
<g clip-path="url(#clip1_105_915)">
<path d="M501.106 462.93C492.233 467.989 474.136 498.259 453.898 542.046C451.538 547.146 449.178 551.759 448.653 552.326L447.692 553.337L447.036 551.759C446.293 550.1 445.899 548.279 444.719 541.358C443.801 535.936 442.315 533.386 439.955 533.386C437.682 533.386 433.879 539.011 431.387 546.134C429.901 550.343 428.197 553.621 427.41 553.621C427.147 553.621 426.536 552.771 426.011 551.678C425.224 550.1 425.049 549.007 425.049 545.527C425.049 543.018 425.312 540.509 425.661 539.416C426.842 535.855 425.661 534.519 420.503 533.629C416.57 532.941 413.685 531.322 414.078 530.027C414.909 527.194 415.739 512.261 415.52 503.642C415.214 490.489 413.859 484.905 410.537 483.083C409.314 482.436 409.008 482.396 407.653 482.922C402.014 485.107 397.249 502.428 395.588 526.749C395.239 532.172 394.802 533.265 392.397 534.6C391.086 535.329 390.999 535.329 389.906 534.641C388.026 533.427 385.142 532.172 384.18 532.172C383.655 532.172 382.781 532.617 382.213 533.184C381.295 533.993 381.12 534.56 381.12 536.705C381.12 538.121 381.426 540.873 381.776 542.896C382.125 544.879 382.431 547.631 382.431 548.967C382.431 551.111 382.3 551.476 381.251 552.245L380.027 553.135L379.809 560.015C379.678 563.819 379.415 567.056 379.197 567.258C378.585 567.825 376.181 564.709 373.296 559.65C371.81 556.979 370.061 554.511 369.493 554.187C368.531 553.58 368.313 553.58 366.39 554.47C364.86 555.158 363.986 555.927 363.242 557.182L362.237 558.962L360.707 557.586C358.128 555.28 356.292 552.326 355.069 548.562C352.49 540.468 351.222 539.78 345.933 543.463C343.398 545.243 341.256 546.336 340.294 546.336C339.289 546.336 338.852 545.243 338.153 541.237C337.541 537.838 337.147 537.028 332.033 528.125C325.389 516.551 323.815 513.921 321.805 511.331C316.603 504.613 307.031 495.184 302.266 492.068C295.709 487.778 291.076 488.183 289.284 493.201C288.279 496.074 289.59 503.196 292.169 508.903C295.666 516.713 302.616 526.021 308.298 530.594C310.615 532.455 312.494 534.924 312.494 536.098C312.494 537.231 310.877 538 307.511 538.445C302.31 539.173 301.392 542.492 304.67 548.602C305.675 550.504 308.167 554.268 310.221 556.979C317.39 566.449 318.177 567.542 318.177 567.744C318.177 567.866 317.39 568.392 316.385 568.918C314.112 570.132 312.8 572.034 313.15 573.653C313.281 574.421 314.374 575.797 315.991 577.295C319.051 580.128 319.663 581.787 318.22 583.122C317.171 584.093 316.035 584.174 313.675 583.406C310.877 582.475 309.041 581.058 307.249 578.428C304.014 573.733 301.173 571.427 298.507 571.346C296.89 571.305 295.841 572.155 294.792 574.26C294.267 575.352 293.699 575.878 293.174 575.878C292.65 575.878 289.721 573.45 285.918 569.889C276.958 561.552 271.931 558.193 267.735 557.789C266.074 557.586 265.768 557.708 264.937 558.679C262.883 561.067 264.238 565.761 269.702 575.393C272.455 580.33 272.805 581.139 272.586 582.637C272.368 584.539 271.275 586.4 270.357 586.4C270.051 586.4 266.729 583.001 262.97 578.792C255.058 569.97 253.31 568.351 249.813 566.409C246.447 564.547 243.519 563.535 237.181 562.078C234.296 561.431 231.192 560.5 230.275 560.055C229.313 559.61 224.854 555.846 220.352 551.678C201.251 533.912 186.52 523.957 178.565 523.39C175.986 523.188 175.724 523.228 174.412 524.321C172.489 525.899 172.227 527.882 173.494 531.363C176.947 540.954 191.765 556.656 211.086 571.224C213.14 572.762 219.347 578.145 224.854 583.163C230.406 588.221 237.006 593.846 239.585 595.668C242.776 597.893 244.306 599.269 244.306 599.795C244.306 600.241 243.431 601.455 242.382 602.507C241.29 603.559 240.284 604.935 240.153 605.542C239.672 607.242 242.033 609.103 246.142 610.277C250.075 611.41 251.736 612.826 251.736 615.052C251.736 615.902 251.431 616.954 251.081 617.399C249.026 619.908 251.299 622.013 261.353 626.99C269.702 631.118 273.461 633.465 272.018 633.668C270.27 633.911 262.314 632.575 258.468 631.401C256.326 630.713 248.021 628.083 240.022 625.493C211.392 616.226 189.099 610.074 182.586 609.589C178.783 609.306 177.865 609.67 177.865 611.45C177.865 613.312 181.319 615.821 191.022 621.041C197.841 624.643 224.68 637.512 235.039 642.085C238.929 643.785 242.076 645.363 242.033 645.566C241.945 645.768 240.59 646.901 239.06 648.034C237.443 649.248 235.87 650.826 235.389 651.717L234.558 653.336L235.738 656.452C236.394 658.192 236.875 660.175 236.787 660.903C236.481 664.141 231.061 664.424 218.953 661.874C206.277 659.163 204.747 658.88 198.628 658.07C176.03 655.116 157.147 656.452 145.257 661.874C137.04 665.598 133.412 670.656 135.466 675.634C136.559 678.305 140.318 681.016 145.039 682.514C151.683 684.658 153.825 684.739 185.078 684.294L196.88 684.132L204.66 685.872C213.752 687.896 217.38 688.381 222.45 688.301C228.22 688.179 230.493 689.838 230.493 694.249C230.493 697.123 229.4 698.782 226.909 699.753C219.959 702.424 214.888 706.107 212.921 709.911C211.697 712.379 211.697 713.553 212.965 714.929C213.752 715.738 214.495 716.062 216.156 716.184C218.385 716.386 219.259 716.143 229.4 712.865C233.159 711.651 234.908 711.327 239.366 711.044C242.339 710.842 245.836 710.801 247.147 710.923C249.464 711.165 249.551 711.206 248.852 711.894C247.54 713.229 241.115 715.819 233.028 718.288C220.265 722.213 215.194 724.844 215.544 727.474C215.806 729.741 219.347 730.267 225.16 728.891C226.996 728.446 229.531 727.596 230.843 726.948C233.159 725.815 233.203 725.815 240.547 725.936C248.72 726.058 250.119 726.341 247.803 727.434C245.18 728.688 240.984 730.024 231.761 732.452C208.769 738.563 197.011 743.257 192.159 748.235C190.061 750.38 189.755 751.675 190.804 753.496C194.475 759.849 217.292 758.15 233.728 750.299C236.088 749.206 241.115 746.292 244.961 743.783C253.835 738.118 258.599 735.366 264.631 732.492C269.745 730.064 273.854 728.688 275.297 728.931C276.214 729.053 276.214 729.053 275.165 731.076C273.985 733.383 270.488 737.753 265.986 742.407C261.44 747.102 260.916 747.83 260.916 749.327C260.916 752.524 263.67 753.334 273.81 753.01L281.241 752.767L279.711 753.496C278.837 753.941 275.297 755.034 271.843 755.964C259.779 759.161 255.058 761.023 252.392 763.653C251.693 764.382 248.764 766.405 245.923 768.186C243.082 769.926 240.372 771.747 239.891 772.192C238.798 773.204 238.798 774.823 239.891 775.389C240.896 775.875 243.781 775.875 246.404 775.43C248.152 775.106 248.24 775.146 247.977 775.956C247.54 777.129 245.879 779.517 244.918 780.286C244.437 780.65 242.951 781.541 241.552 782.229C230.843 787.813 218.079 800.804 216.943 807.238C216.681 808.695 216.812 809.059 217.861 809.99C218.822 810.921 219.259 811.042 220.614 810.84C223.019 810.516 226.647 808.655 232.46 804.729C237.705 801.249 240.372 798.902 240.372 797.89C240.372 797.04 242.951 794.005 243.65 794.005C244.612 794.005 244.481 794.369 242.732 797.081C239.891 801.37 240.328 804.122 243.869 804.122C246.36 804.122 249.464 801.734 258.73 792.791C266.642 785.142 266.817 785.021 267.079 786.194C267.691 789.108 269.177 789.108 272.281 786.194L274.51 784.09L274.247 785.506C274.073 786.275 271.712 791.253 268.958 796.595C266.205 801.896 263.451 807.805 262.883 809.707C259.648 819.945 262.14 828.768 267.647 826.623C269.658 825.854 271.931 822.94 274.685 817.679C277.22 812.742 279.711 809.504 283.47 806.146L285.918 803.92L285.7 805.781C285.525 806.793 284.52 809.869 283.427 812.58C282.334 815.332 281.241 818.853 281.023 820.471C280.76 822.05 280.061 826.785 279.405 831.034C277.832 841.232 277.701 851.309 279.099 853.494C279.58 854.263 280.498 855.153 281.154 855.436C286.924 858.026 298.026 839.816 304.845 816.667C306.55 810.719 307.074 809.383 307.642 809.383C308.254 809.383 309.784 813.066 310.353 816.02C311.008 819.541 312.32 821.079 315.03 821.402C317.565 821.726 320.493 820.633 321.63 818.974C322.067 818.246 322.679 816.586 322.985 815.251C323.247 813.916 324.34 809.626 325.389 805.741C326.438 801.856 327.4 797.849 327.575 796.838C328.055 793.964 328.755 791.577 329.104 791.577C330.022 791.577 332.164 798.659 333.344 805.741C334.481 812.54 334.437 830.386 333.301 836.902C332.514 841.475 332.514 841.596 333.344 845.4L334.219 849.245L333.213 853.615C329.061 871.381 330.678 883.643 337.409 885.505C344.84 887.569 351.834 875.104 351.834 859.848V855.882L353.145 857.258C355.986 860.293 358.697 860.05 360.489 856.651C361.494 854.789 362.237 851.471 363.155 844.429C363.942 838.359 366.127 835.526 368.269 837.873C369.449 839.128 369.974 841.799 369.581 844.915C368.794 851.471 368.794 852.927 369.493 855.477C370.367 858.674 370.367 860.293 369.449 865.796C368.837 869.601 368.794 870.976 369.231 875.145C370.236 884.898 373.296 889.916 378.279 889.916C381.82 889.916 386.365 885.626 388.507 880.203C391.174 873.445 390.736 866.404 387.283 860.009C385.579 856.934 385.579 856.327 387.152 856.327C388.332 856.367 390.387 857.217 394.364 859.321C395.807 860.09 396.769 860.374 397.512 860.212C399.522 859.726 399.653 858.795 398.386 852.401C396.9 844.874 396.9 838.278 398.473 836.861C399.697 835.688 400.965 836.011 403.544 838.116C406.909 840.868 407.784 843.053 408.221 850.095C408.483 853.413 409.051 857.865 409.532 859.969C410.363 863.692 410.8 868.063 411.718 882.429C412.242 890.401 412.679 892.344 415.477 899.224C421.421 913.954 428.24 922.534 435.015 923.95C438.206 924.598 440.523 923.95 443.189 921.643C447.604 917.839 449.833 911.809 449.877 903.675C449.877 895.177 447.823 889.268 442.359 882.267C437.507 876.076 433.092 866.93 430.907 858.553C430.47 856.772 430.076 854.708 430.076 853.98V852.685L433.486 852.644C435.321 852.644 437.551 852.442 438.381 852.159C440.567 851.471 440.567 850.095 438.469 845.157C434.797 836.619 431.912 826.582 432.874 825.692C433.966 824.68 440.348 830.305 447.823 838.925C452.281 844.024 454.467 845.805 457.701 846.857C462.772 848.516 466.181 846.493 466.006 842.001C465.875 839.33 464.608 836.416 460.411 829.172C454.642 819.176 450.751 811.204 451.145 810.111C451.232 809.869 452.718 811.123 454.467 812.863C460.98 819.541 468.891 829.334 474.049 837.104C477.852 842.891 479.207 844.389 481.436 845.4C483.447 846.291 483.491 846.291 488.08 844.55C489.829 843.903 490.309 844.227 492.626 847.869C494.593 850.944 501.63 858.31 505.521 861.426C510.81 865.635 514.962 867.577 517.585 867.091C524.098 865.877 521.694 855.639 512.602 845.886C511.291 844.51 510.941 843.822 510.941 842.527C510.941 840.746 511.028 840.706 514.438 841.556C517.672 842.365 519.814 842.325 521.038 841.434C523.267 839.735 521.606 836.295 515.618 830.224C513.738 828.322 512.296 826.785 512.427 826.785C512.558 826.785 514.613 827.473 516.929 828.363C522.961 830.589 529.299 832.41 532.009 832.693C533.976 832.895 534.501 832.814 535.55 832.046C538.566 829.86 536.293 827.068 520.776 814.037C508.362 803.596 496.953 792.629 496.953 791.091C496.953 790.484 499.095 791.01 507.488 793.641C511.728 794.936 515.705 796.028 516.317 796.028C517.323 796.028 518.809 794.774 518.809 793.924C518.809 793.762 517.716 792.467 516.405 791.01C514.219 788.663 513.126 786.923 513.126 785.871C513.126 785.061 515.749 785.587 519.071 787.085C522.961 788.825 527.201 791.294 535.463 796.716C543.855 802.22 549.013 804.486 559.635 807.36C569.338 809.95 576.9 810.84 580.965 809.788C581.84 809.545 583.064 808.816 583.675 808.129C586.342 805.215 584.419 800.561 578.255 794.814C569.12 786.275 555.045 778.465 538.173 772.516C529.168 769.359 524.491 766.365 524.491 763.734C524.491 762.156 525.934 761.873 532.141 762.277C535.244 762.439 540.008 762.601 542.675 762.642C548.226 762.642 549.406 762.156 549.406 759.89C549.406 757.259 542.806 753.536 532.141 750.096C522.786 747.102 519.727 745.321 521.65 743.986C523.224 742.893 525.584 742.529 533.233 742.245C541.626 741.962 543.768 741.436 544.992 739.332C545.56 738.401 545.516 738.118 544.773 736.742C543.593 734.475 539.921 732.331 531.441 728.972C522.961 725.653 518.678 723.306 519.814 722.699C521.169 722.011 527.682 721.849 533.889 722.335C541.407 722.942 542.413 723.144 552.466 725.896C577.294 732.654 603.389 737.43 624.589 739.17C643.209 740.708 653.001 739.129 653.001 734.556C653.001 727.474 623.714 715.657 563.612 698.499C541.232 692.105 533.19 689.515 533.845 688.908C533.976 688.786 537.124 688.908 540.839 689.191C548.619 689.798 552.116 689.393 554.564 687.734C556.925 686.034 556.313 683.121 553.209 681.664C550.674 680.409 549.188 680.207 541.32 679.883C533.277 679.559 529.649 678.912 528.207 677.576C527.551 676.969 527.551 676.888 528.207 676.281C528.775 675.755 530.174 675.634 536.861 675.553C541.232 675.512 545.778 675.27 547.002 675.027C553.821 673.61 555.176 669.806 550.324 665.598C547.614 663.25 545.56 662.279 541.932 661.713C536.424 660.863 531.092 661.47 522.918 663.898C517.148 665.598 515.443 665.719 515.05 664.343C514.569 662.522 515.05 660.782 516.23 659.932C517.935 658.758 520.382 658.475 528.425 658.435C539.921 658.394 547.133 657.382 557.93 654.347C566.803 651.798 569.601 649.329 566.672 646.618C565.492 645.525 563.875 644.878 558.105 643.299C548.751 640.709 551.155 639.131 566.235 637.998C587.653 636.379 602.209 633.627 612 629.338C618.119 626.667 621.442 623.146 620.961 619.868C620.786 618.532 620.305 617.844 618.775 616.509C615.147 613.474 608.241 612.26 599.324 613.069C593.86 613.555 584.375 615.538 581.971 616.63C581.271 616.995 577.469 619.261 573.535 621.689C565.186 626.909 560.946 628.892 558.28 628.892C556.05 628.892 555.875 628.65 554.914 624.238C553.69 618.654 551.854 616.347 548.794 616.347C548.182 616.347 544.38 617.723 540.358 619.423C532.927 622.539 525.803 625.007 525.365 624.562C525.234 624.441 528.032 621.77 531.572 618.613C535.113 615.497 538.304 612.3 538.697 611.572C539.091 610.803 539.353 609.508 539.265 608.577C539.091 606.23 537.517 605.218 534.195 605.259C532.053 605.259 530.917 605.623 526.24 607.768C523.267 609.144 520.426 610.277 519.989 610.277C518.678 610.277 521.344 607.201 527.332 601.859C533.802 596.032 537.036 593.766 542.5 591.216C552.685 586.481 565.754 578.913 573.054 573.531C588.09 562.443 593.336 552.002 585.555 548.764C578.518 545.77 564.312 551.799 549.843 563.9C547.133 566.166 543.855 568.189 542.937 568.189C541.932 568.189 539.353 565.316 538.872 563.657C538.653 562.807 537.998 561.633 537.43 561.026C536.424 559.974 536.38 559.934 533.496 560.338C531.66 560.581 530.611 560.622 530.611 560.379C530.611 560.136 532.359 558.274 534.501 556.251C537.43 553.459 538.872 551.678 540.14 549.29C542.369 545.203 545.254 542.046 550.368 538.04C552.597 536.3 557.274 532.253 560.771 529.137C566.06 524.362 568.333 522.662 574.19 519.101C582.889 513.759 584.768 512.302 588.964 507.486C596.876 498.381 600.766 491.177 599.936 487.171C599.805 486.402 599.062 485.269 598.362 484.621C594.778 481.424 585.817 483.974 574.715 491.299C568.639 495.305 563.612 499.878 557.58 506.879C550.805 514.69 547.09 518.575 544.467 520.517C543.287 521.367 542.194 522.055 542.063 522.055C541.888 522.055 541.757 520.517 541.757 518.615C541.757 515.418 541.669 515.135 540.533 514.083C539.528 513.152 538.959 512.949 537.255 512.99C531.791 513.071 523.836 519.829 515.093 531.767C509.761 539.011 508.318 540.144 506.832 538.161C505.827 536.866 506.002 535.855 507.488 533.791C508.668 532.213 508.799 531.727 508.537 530.149C508.012 526.749 506.176 525.495 503.423 526.547C500.188 527.761 494.243 534.6 484.583 548.198C480.737 553.58 478.245 556.615 476.409 558.234C473.568 560.622 470.946 562.119 469.416 562.119C468.673 562.119 468.542 561.876 468.542 560.46C468.542 558.355 470.552 552.811 473.044 547.874C474.136 545.81 476.978 540.185 479.469 535.41C500.8 493.848 510.679 465.48 504.821 462.566C503.641 461.959 502.592 462.08 501.106 462.93Z" fill="#F5353A"/>
<path d="M212.397 489.356C210.473 490.57 209.206 492.958 208.987 495.79C208.638 500.08 211.916 504.855 218.429 509.59C220.046 510.764 223.106 513.071 225.291 514.73C230.099 518.412 233.596 520.031 236.787 520.031C238.667 520.031 239.322 519.829 240.153 519.02C241.858 517.482 241.552 516.146 237.924 509.388C232.722 499.797 229.575 495.629 224.985 492.27C219.871 488.547 215.325 487.535 212.397 489.356Z" fill="#F5353A"/>
<path d="M103.032 539.821C99.5791 540.873 97.4373 543.706 97.0876 547.834C96.6942 552.407 99.448 555.968 105.524 558.801C113.741 562.564 134.897 568.23 144.514 569.201C146.83 569.444 147.573 569.363 149.191 568.594C151.77 567.461 152.119 566.449 150.458 564.871C148.273 562.767 135.99 553.135 130.876 549.574C121.653 543.139 114.091 539.902 107.709 539.618C105.786 539.537 103.688 539.618 103.032 539.821Z" fill="#F5353A"/>
</g>
<g clip-path="url(#clip2_105_915)">
<path d="M-33.7333 243.536C-27.7008 238.868 -15.398 210.935 -1.63902 170.529C-0.034302 165.823 1.57042 161.566 1.92702 161.043L2.58079 160.11L3.02655 161.566C3.53174 163.097 3.79919 164.778 4.60155 171.163C5.2256 176.167 6.23598 178.52 7.8407 178.52C9.38598 178.52 11.9714 173.329 13.6652 166.757C14.6756 162.873 15.8346 159.848 16.3695 159.848C16.5478 159.848 16.9638 160.632 17.3204 161.641C17.8553 163.097 17.9742 164.105 17.9742 167.317C17.9742 169.632 17.7959 171.948 17.5582 172.956C16.7558 176.242 17.5582 177.475 21.0648 178.296C23.7393 178.931 25.7006 180.425 25.4332 181.62C24.8685 184.234 24.3039 198.014 24.4525 205.968C24.6605 218.105 25.5817 223.258 27.8402 224.938C28.6723 225.536 28.8803 225.573 29.8015 225.088C33.635 223.071 36.8742 207.088 38.0034 184.645C38.2412 179.64 38.5383 178.632 40.1728 177.4C41.0643 176.728 41.1237 176.728 41.8666 177.362C43.1445 178.483 45.1058 179.64 45.7596 179.64C46.1162 179.64 46.7105 179.23 47.0968 178.707C47.7209 177.96 47.8398 177.437 47.8398 175.458C47.8398 174.151 47.6317 171.612 47.394 169.744C47.1563 167.915 46.9482 165.375 46.9482 164.143C46.9482 162.164 47.0374 161.827 47.7506 161.118L48.5827 160.296L48.7313 153.948C48.8204 150.438 48.9987 147.45 49.1473 147.263C49.5633 146.741 51.1978 149.616 53.1591 154.284C54.1695 156.749 55.3582 159.027 55.7445 159.325C56.3982 159.886 56.5468 159.886 57.8544 159.064C58.8945 158.429 59.4888 157.72 59.994 156.562L60.6775 154.919L61.7176 156.189C63.4709 158.317 64.719 161.043 65.5511 164.516C67.3044 171.985 68.1662 172.62 71.7619 169.222C73.4855 167.578 74.9416 166.57 75.5954 166.57C76.2789 166.57 76.5761 167.578 77.0515 171.275C77.4676 174.412 77.735 175.159 81.2119 183.375C85.7289 194.055 86.7987 196.482 88.1657 198.872C91.702 205.072 98.21 213.773 101.449 216.648C105.907 220.607 109.057 220.233 110.275 215.602C110.959 212.951 110.067 206.379 108.314 201.113C105.936 193.906 101.211 185.317 97.3482 181.097C95.7732 179.379 94.4954 177.101 94.4954 176.018C94.4954 174.972 95.5949 174.263 97.8832 173.852C101.419 173.18 102.044 170.118 99.8148 164.479C99.1313 162.724 97.4374 159.251 96.0407 156.749C91.1671 148.01 90.6322 147.002 90.6322 146.815C90.6322 146.703 91.1671 146.218 91.8506 145.732C93.3959 144.612 94.2874 142.857 94.0497 141.363C93.9605 140.654 93.2176 139.384 92.1181 138.002C90.0379 135.388 89.6218 133.857 90.6025 132.625C91.3157 131.728 92.0883 131.654 93.6931 132.363C95.5949 133.222 96.8431 134.529 98.0615 136.957C100.261 141.288 102.192 143.417 104.005 143.492C105.104 143.529 105.818 142.745 106.531 140.803C106.887 139.795 107.274 139.309 107.63 139.309C107.987 139.309 109.978 141.55 112.563 144.836C118.655 152.529 122.073 155.628 124.926 156.002C126.055 156.189 126.263 156.077 126.827 155.18C128.224 152.977 127.303 148.645 123.588 139.757C121.716 135.201 121.478 134.455 121.627 133.073C121.776 131.318 122.519 129.6 123.143 129.6C123.351 129.6 125.609 132.737 128.165 136.62C133.544 144.761 134.732 146.255 137.11 148.048C139.398 149.765 141.389 150.699 145.698 152.043C147.659 152.641 149.769 153.5 150.393 153.911C151.047 154.321 154.078 157.794 157.139 161.641C170.125 178.035 180.14 187.221 185.548 187.744C187.302 187.931 187.48 187.893 188.371 186.885C189.679 185.429 189.857 183.599 188.995 180.387C186.648 171.537 176.574 157.047 163.439 143.604C162.042 142.185 157.822 137.218 154.078 132.587C150.304 127.919 145.817 122.729 144.063 121.048C141.894 118.994 140.854 117.725 140.854 117.239C140.854 116.828 141.448 115.708 142.161 114.737C142.904 113.766 143.588 112.496 143.677 111.936C144.004 110.368 142.399 108.65 139.606 107.567C136.931 106.521 135.802 105.214 135.802 103.16C135.802 102.376 136.01 101.405 136.248 100.994C137.644 98.6792 136.099 96.7373 129.264 92.144C123.588 88.335 121.033 86.169 122.013 85.9823C123.202 85.7582 128.611 86.9906 131.226 88.0736C132.682 88.7084 138.328 91.1357 143.766 93.5257C163.231 102.077 178.386 107.754 182.814 108.202C185.4 108.463 186.024 108.127 186.024 106.484C186.024 104.766 183.676 102.451 177.079 97.6336C172.443 94.31 154.197 82.4347 147.154 78.2148C144.509 76.6464 142.369 75.19 142.399 75.0032C142.459 74.8165 143.38 73.7709 144.42 72.7253C145.519 71.605 146.589 70.1486 146.916 69.327L147.481 67.8332L146.678 64.9578C146.233 63.352 145.906 61.5221 145.965 60.85C146.173 57.8625 149.858 57.6011 158.09 59.9537C166.708 62.4557 167.748 62.7171 171.908 63.464C187.272 66.1901 200.11 64.9578 208.193 59.9537C213.779 56.5181 216.246 51.8501 214.849 47.2568C214.106 44.7921 211.551 42.2901 208.341 40.9084C203.824 38.9292 202.368 38.8545 181.12 39.2653L173.097 39.4146L167.807 37.8089C161.626 35.9417 159.16 35.4936 155.712 35.5682C151.79 35.6803 150.244 34.1492 150.244 30.0787C150.244 27.4273 150.987 25.8962 152.681 25C157.406 22.5353 160.853 19.137 162.191 15.6267C163.023 13.3487 163.023 12.2657 162.161 10.996C161.626 10.2492 161.121 9.95042 159.992 9.83839C158.476 9.65167 157.882 9.87573 150.987 12.9006C148.432 14.0209 147.243 14.3196 144.212 14.581C142.191 14.7678 139.814 14.8051 138.922 14.6931C137.347 14.469 137.288 14.4317 137.763 13.7968C138.655 12.5645 143.023 10.1745 148.521 7.89652C157.198 4.27417 160.645 1.84683 160.408 -0.580517C160.229 -2.67177 157.822 -3.15724 153.87 -1.88755C152.622 -1.47677 150.898 -0.692548 150.007 -0.0950482C148.432 0.950577 148.402 0.950577 143.41 0.838546C137.852 0.726514 136.902 0.465108 138.477 -0.543173C140.26 -1.70083 143.112 -2.93317 149.383 -5.1738C165.014 -10.8127 173.008 -15.1446 176.306 -19.7379C177.733 -21.7171 177.941 -22.9121 177.227 -24.5926C174.731 -30.4555 159.219 -28.8871 148.045 -21.6424C146.441 -20.6341 143.023 -17.9454 140.408 -15.6301C134.376 -10.4019 131.136 -7.86255 127.036 -5.21114C123.559 -2.97052 120.765 -1.70083 119.785 -1.92489C119.161 -2.03692 119.161 -2.03692 119.874 -3.90411C120.676 -6.03271 123.053 -10.0658 126.114 -14.3604C129.205 -18.6922 129.561 -19.3644 129.561 -20.7461C129.561 -23.6963 127.689 -24.4432 120.795 -24.1444L115.743 -23.9204L116.783 -24.5926C117.377 -25.0033 119.785 -26.0116 122.132 -26.8705C130.334 -29.8207 133.544 -31.5385 135.356 -33.9658C135.832 -34.638 137.823 -36.5052 139.754 -38.1483C141.686 -39.7541 143.528 -41.4346 143.855 -41.8454C144.598 -42.779 144.598 -44.2727 143.855 -44.7955C143.172 -45.2436 141.211 -45.2436 139.427 -44.8329C138.239 -44.5341 138.179 -44.5715 138.358 -45.3183C138.655 -46.4013 139.784 -48.6046 140.438 -49.3141C140.765 -49.6502 141.775 -50.4718 142.726 -51.1066C150.007 -56.2601 158.684 -68.2474 159.457 -74.1851C159.635 -75.5294 159.546 -75.8655 158.833 -76.7244C158.179 -77.5833 157.882 -77.6954 156.961 -77.5087C155.326 -77.2099 152.86 -75.4921 148.907 -71.8697C145.341 -68.6582 143.528 -66.4922 143.528 -65.5587C143.528 -64.7744 141.775 -61.9737 141.3 -61.9737C140.646 -61.9737 140.735 -62.3097 141.924 -64.8118C143.855 -68.7702 143.558 -71.3096 141.151 -71.3096C139.457 -71.3096 137.347 -69.1063 131.047 -60.8533C125.669 -53.7954 125.55 -53.6833 125.371 -54.7663C124.955 -57.4551 123.945 -57.4551 121.835 -54.7663L120.319 -52.8244L120.498 -54.1315C120.617 -54.841 122.221 -59.4343 124.094 -64.3637C125.966 -69.2557 127.838 -74.7079 128.224 -76.463C130.423 -85.911 128.729 -94.0519 124.985 -92.0727C123.618 -91.3632 122.073 -88.6744 120.201 -83.8197C118.477 -79.2638 116.783 -76.2763 114.227 -73.1768L112.563 -71.1229L112.712 -72.8407C112.831 -73.7743 113.514 -76.6124 114.257 -79.1144C115 -81.6538 115.743 -84.9027 115.892 -86.3965C116.07 -87.8529 116.545 -92.2221 116.991 -96.1432C118.061 -105.554 118.15 -114.852 117.199 -116.869C116.872 -117.578 116.248 -118.4 115.802 -118.661C111.88 -121.051 104.332 -104.247 99.6959 -82.8862C98.5369 -77.3966 98.1803 -76.1643 97.794 -76.1643C97.378 -76.1643 96.3379 -79.5626 95.9515 -82.2887C95.5058 -85.5376 94.6143 -86.9566 92.7718 -87.2554C91.0482 -87.5541 89.0572 -86.5458 88.2846 -85.0147C87.9874 -84.3426 87.5714 -82.8115 87.3633 -81.5791C87.185 -80.3468 86.4421 -76.3883 85.7289 -72.8033C85.0157 -69.2183 84.3619 -65.5213 84.2431 -64.5877C83.9162 -61.9363 83.4407 -59.733 83.203 -59.733C82.5789 -59.733 81.1228 -66.2682 80.3204 -72.8033C79.5478 -79.0771 79.5775 -95.5457 80.3501 -101.558C80.885 -105.778 80.885 -105.89 80.3204 -109.4L79.7261 -112.948L80.4096 -116.981C83.2327 -133.375 82.1332 -144.69 77.5567 -146.408C72.5049 -148.312 67.7501 -136.811 67.7501 -122.732V-119.072L66.8586 -120.342C64.927 -123.143 63.0846 -122.919 61.8662 -119.782C61.1827 -118.064 60.6775 -115.002 60.0534 -108.504C59.5185 -102.902 58.0327 -100.288 56.5765 -102.454C55.7742 -103.612 55.4176 -106.077 55.685 -108.952C56.2199 -115.002 56.2199 -116.346 55.7445 -118.699C55.1501 -121.649 55.1501 -123.143 55.7742 -128.221C56.1902 -131.732 56.2199 -133.001 55.9228 -136.848C55.2393 -145.848 53.1591 -150.478 49.7714 -150.478C47.3643 -150.478 44.2737 -146.52 42.8176 -141.516C41.0048 -135.279 41.302 -128.782 43.6497 -122.881C44.8086 -120.043 44.8086 -119.483 43.7388 -119.483C42.9365 -119.52 41.5398 -120.305 38.8355 -122.246C37.8548 -122.956 37.2011 -123.217 36.6959 -123.068C35.3289 -122.62 35.2398 -121.761 36.1015 -115.861C37.1119 -108.915 37.1119 -102.828 36.0421 -101.521C35.21 -100.438 34.3482 -100.736 32.5949 -102.678C30.3067 -105.218 29.7124 -107.234 29.4152 -113.732C29.2369 -116.794 28.8506 -120.902 28.5237 -122.844C27.9591 -126.28 27.6619 -130.313 27.0379 -143.57C26.6813 -150.926 26.3841 -152.719 24.4822 -159.067C20.4407 -172.661 15.8048 -180.577 11.1987 -181.884C9.02938 -182.482 7.45438 -181.884 5.64164 -179.756C2.64023 -176.246 1.12466 -170.681 1.09494 -163.175C1.09494 -155.333 2.49164 -149.881 6.20626 -143.42C9.50485 -137.707 12.5063 -129.267 13.9921 -121.537C14.2893 -119.894 14.5567 -117.989 14.5567 -117.317V-116.122L12.2388 -116.085C10.9907 -116.085 9.47513 -115.898 8.91051 -115.637C7.42466 -115.002 7.42466 -113.732 8.85108 -109.176C11.3473 -101.297 13.3086 -92.0354 12.6548 -91.2138C11.9119 -90.2802 7.57325 -95.471 2.49164 -103.425C-0.539491 -108.131 -2.02534 -109.774 -4.2244 -110.745C-7.67157 -112.276 -9.98949 -110.408 -9.87062 -106.263C-9.78147 -103.799 -8.91968 -101.11 -6.06685 -94.4254C-2.14421 -85.2015 0.500604 -77.8447 0.233151 -76.8365C0.173717 -76.6124 -0.83666 -77.7701 -2.02534 -79.3758C-6.45317 -85.5376 -11.8319 -94.5747 -15.3385 -101.745C-17.9239 -107.085 -18.8452 -108.467 -20.3607 -109.4C-21.7277 -110.222 -21.7574 -110.222 -24.8777 -108.616C-26.0664 -108.018 -26.3933 -108.317 -27.9683 -111.678C-29.3055 -114.516 -34.0899 -121.313 -36.7348 -124.188C-40.3305 -128.072 -43.1536 -129.865 -44.9366 -129.416C-49.3645 -128.296 -47.73 -118.848 -41.5489 -109.848C-40.6574 -108.579 -40.4197 -107.944 -40.4197 -106.749C-40.4197 -105.106 -40.4791 -105.068 -42.797 -105.853C-44.9961 -106.599 -46.4522 -106.562 -47.2843 -105.741C-48.7999 -104.172 -47.6706 -100.998 -43.5994 -95.3963C-42.3216 -93.6412 -41.3409 -92.2221 -41.43 -92.2221C-41.5192 -92.2221 -42.9159 -92.8569 -44.4909 -93.6785C-48.5918 -95.7324 -52.9008 -97.4129 -54.7433 -97.6743C-56.0805 -97.861 -56.4371 -97.7863 -57.1503 -97.0768C-59.2008 -95.0602 -57.6555 -92.4835 -47.106 -80.4588C-38.6664 -70.8241 -30.9102 -60.704 -30.9102 -59.2849C-30.9102 -58.7247 -32.3664 -59.2102 -38.072 -61.6376C-40.9546 -62.8326 -43.6588 -63.8408 -44.0749 -63.8408C-44.7583 -63.8408 -45.7687 -62.6832 -45.7687 -61.899C-45.7687 -61.7496 -45.0258 -60.5546 -44.1343 -59.2102C-42.6484 -57.0443 -41.9055 -55.4385 -41.9055 -54.4676C-41.9055 -53.7207 -43.6885 -54.2061 -45.947 -55.5879C-48.5918 -57.1937 -51.4744 -59.4716 -57.0909 -64.4757C-62.7966 -69.5544 -66.3032 -71.6457 -73.5244 -74.2971C-80.1216 -76.6871 -85.2626 -77.5087 -88.0263 -76.5377C-88.6206 -76.3137 -89.4527 -75.6415 -89.8687 -75.0066C-91.6815 -72.3179 -90.3739 -68.0233 -86.1838 -62.7205C-79.973 -54.841 -70.4041 -47.6336 -58.9333 -42.1441C-52.8116 -39.2313 -49.6319 -36.4679 -49.6319 -34.0405C-49.6319 -32.5841 -50.6126 -32.3227 -54.8324 -32.6961C-56.9423 -32.8455 -60.1815 -32.9949 -61.9942 -33.0322C-65.7683 -33.0322 -66.5706 -32.5841 -66.5706 -30.4929C-66.5706 -28.0655 -62.0833 -24.6299 -54.8324 -21.4557C-48.473 -18.6922 -46.3928 -17.0491 -47.7003 -15.8168C-48.7701 -14.8085 -50.3749 -14.4724 -55.5753 -14.211C-61.281 -13.9496 -62.7371 -13.4641 -63.5692 -11.5222C-63.9555 -10.6633 -63.9258 -10.4019 -63.4206 -9.13224C-62.6183 -7.04099 -60.122 -5.06177 -54.3569 -1.96224C-48.5918 1.09995 -45.6796 3.26589 -46.4522 3.82605C-47.3734 4.46089 -51.8013 4.61027 -56.0211 4.16214C-61.1324 3.60198 -61.8159 3.41526 -68.6508 0.875889C-85.53 -5.36052 -103.271 -9.76708 -117.684 -11.3729C-130.343 -12.7919 -137 -11.3355 -137 -7.11567C-137 -0.580517 -117.089 10.3239 -76.2286 26.1576C-61.0135 32.0579 -55.5456 34.4479 -55.9914 35.0081C-56.0805 35.1201 -58.2201 35.0081 -60.7461 34.7467C-66.0357 34.1865 -68.4131 34.56 -70.0772 36.0911C-71.6819 37.6595 -71.2659 40.3482 -69.156 41.6926C-67.4324 42.8503 -66.422 43.037 -61.073 43.3357C-55.605 43.6345 -53.1385 44.232 -52.1579 45.4643C-51.7121 46.0245 -51.7121 46.0992 -52.1579 46.6593C-52.5442 47.1448 -53.4951 47.2568 -58.0418 47.3315C-61.0135 47.3689 -64.1041 47.5929 -64.9362 47.817C-69.572 49.124 -70.4933 52.6343 -67.1947 56.5181C-65.3522 58.684 -63.9555 59.5803 -61.489 60.1031C-57.7447 60.8873 -54.1192 60.3271 -48.5621 58.0865C-44.6395 56.5181 -43.4805 56.4061 -43.2131 57.6757C-42.8862 59.3562 -43.2131 60.962 -44.0154 61.7462C-45.1744 62.8292 -46.8385 63.0906 -52.3065 63.1279C-60.122 63.1653 -65.0253 64.0989 -72.3654 66.8996C-78.398 69.2523 -80.2999 71.5303 -78.3088 74.0323C-77.5065 75.0406 -76.4069 75.6381 -72.4843 77.0945C-66.1249 79.4845 -67.7593 80.9409 -78.0116 81.9865C-92.573 83.4803 -102.469 86.0197 -109.125 89.9781C-113.286 92.4428 -115.544 95.6917 -115.217 98.7165C-115.098 99.9489 -114.772 100.584 -113.731 101.816C-111.265 104.617 -106.57 105.737 -100.507 104.99C-96.7928 104.542 -90.3442 102.712 -88.7098 101.704C-88.2343 101.368 -85.6489 99.2767 -82.9744 97.0361C-77.2984 92.2187 -74.4159 90.3889 -72.6032 90.3889C-71.0876 90.3889 -70.9687 90.6129 -70.3149 94.6834C-69.4829 99.8368 -68.2348 101.965 -66.1546 101.965C-65.7385 101.965 -63.1532 100.696 -60.4192 99.1273C-55.3673 96.2518 -50.5234 93.9739 -50.2263 94.3847C-50.1371 94.4967 -52.039 96.9614 -54.4461 99.8742C-56.8532 102.75 -59.0225 105.7 -59.2899 106.372C-59.5574 107.082 -59.7357 108.277 -59.6763 109.135C-59.5574 111.301 -58.4876 112.235 -56.2291 112.198C-54.773 112.198 -54.0003 111.862 -50.8206 109.882C-48.7999 108.613 -46.8683 107.567 -46.5711 107.567C-45.6796 107.567 -47.4923 110.405 -51.5635 115.334C-55.9616 120.712 -58.1607 122.803 -61.8753 125.156C-68.7994 129.525 -77.6848 136.508 -82.6475 141.475C-92.8701 151.707 -96.4362 161.342 -91.1466 164.33C-86.3621 167.093 -76.7041 161.529 -66.8678 150.363C-65.0253 148.272 -62.7966 146.405 -62.1725 146.405C-61.489 146.405 -59.7357 149.056 -59.4088 150.587C-59.2602 151.371 -58.8145 152.454 -58.4282 153.014C-57.7447 153.985 -57.7149 154.023 -55.7536 153.649C-54.5055 153.425 -53.7923 153.388 -53.7923 153.612C-53.7923 153.836 -54.981 155.554 -56.4371 157.421C-58.4282 159.998 -59.4088 161.641 -60.2706 163.844C-61.7862 167.616 -63.7475 170.529 -67.2244 174.226C-68.7399 175.831 -71.9197 179.566 -74.297 182.441C-77.8928 186.848 -79.4381 188.416 -83.4201 191.702C-89.3338 196.632 -90.6116 197.976 -93.4645 202.42C-98.8433 210.822 -101.488 217.47 -100.923 221.167C-100.834 221.876 -100.329 222.922 -99.8536 223.519C-97.4168 226.47 -91.3249 224.117 -83.7767 217.358C-79.6461 213.661 -76.2286 209.441 -72.1277 202.98C-67.5216 195.773 -64.9956 192.188 -63.2126 190.395C-62.4102 189.611 -61.6673 188.976 -61.5782 188.976C-61.4593 188.976 -61.3701 190.395 -61.3701 192.151C-61.3701 195.101 -61.3107 195.362 -60.5381 196.333C-59.8546 197.192 -59.4683 197.379 -58.3093 197.341C-54.5947 197.267 -49.1862 191.03 -43.2428 180.014C-39.6173 173.329 -38.6366 172.284 -37.6263 174.114C-36.9428 175.309 -37.0616 176.242 -38.072 178.147C-38.8744 179.603 -38.9635 180.051 -38.7852 181.508C-38.4286 184.645 -37.1805 185.802 -35.3083 184.831C-33.1093 183.711 -29.0678 177.4 -22.5003 164.852C-19.8852 159.886 -18.1914 157.085 -16.9433 155.591C-15.0117 153.388 -13.2286 152.006 -12.1885 152.006C-11.6834 152.006 -11.5942 152.23 -11.5942 153.537C-11.5942 155.479 -12.9612 160.595 -14.6551 165.151C-15.398 167.056 -17.3296 172.246 -19.0235 176.653C-33.5253 215.005 -40.2414 241.183 -36.2593 243.872C-35.4569 244.432 -34.7437 244.32 -33.7333 243.536Z" fill="#5BE545"/>
<path d="M162.548 219.15C163.855 218.03 164.717 215.827 164.866 213.213C165.103 209.254 162.875 204.848 158.447 200.478C157.347 199.395 155.267 197.267 153.781 195.736C150.512 192.338 148.135 190.844 145.966 190.844C144.688 190.844 144.242 191.03 143.677 191.777C142.518 193.196 142.726 194.429 145.193 200.665C148.729 209.516 150.869 213.362 153.989 216.462C157.466 219.897 160.557 220.831 162.548 219.15Z" fill="#5BE545"/>
<path d="M236.899 172.583C239.247 171.612 240.703 168.998 240.941 165.188C241.208 160.969 239.336 157.682 235.205 155.068C229.619 151.595 215.236 146.367 208.698 145.471C207.123 145.247 206.618 145.322 205.518 146.031C203.765 147.077 203.527 148.01 204.656 149.467C206.142 151.409 214.493 160.296 217.97 163.583C224.24 169.52 229.381 172.508 233.72 172.769C235.027 172.844 236.454 172.769 236.899 172.583Z" fill="#5BE545"/>
</g>
<g clip-path="url(#clip3_105_915)" filter="url(#filter0_d_105_915)">
<path d="M426.444 277.536C419.869 272.868 406.46 244.935 391.463 204.529C389.714 199.823 387.965 195.566 387.577 195.043L386.864 194.11L386.378 195.566C385.828 197.097 385.536 198.778 384.661 205.163C383.981 210.167 382.88 212.52 381.131 212.52C379.447 212.52 376.629 207.329 374.783 200.757C373.681 196.873 372.418 193.848 371.835 193.848C371.641 193.848 371.187 194.632 370.799 195.641C370.216 197.097 370.086 198.105 370.086 201.317C370.086 203.632 370.28 205.948 370.539 206.956C371.414 210.242 370.539 211.475 366.717 212.296C363.802 212.931 361.665 214.425 361.956 215.62C362.572 218.234 363.187 232.014 363.025 239.968C362.798 252.105 361.794 257.258 359.333 258.938C358.426 259.536 358.199 259.573 357.195 259.088C353.017 257.071 349.486 241.088 348.255 218.645C347.996 213.64 347.672 212.632 345.891 211.4C344.919 210.728 344.854 210.728 344.044 211.362C342.652 212.483 340.514 213.64 339.801 213.64C339.413 213.64 338.765 213.23 338.344 212.707C337.664 211.96 337.534 211.437 337.534 209.458C337.534 208.151 337.761 205.612 338.02 203.744C338.279 201.915 338.506 199.375 338.506 198.143C338.506 196.164 338.409 195.827 337.631 195.118L336.724 194.296L336.562 187.948C336.465 184.438 336.271 181.45 336.109 181.263C335.656 180.741 333.874 183.616 331.736 188.284C330.635 190.749 329.339 193.027 328.918 193.325C328.206 193.886 328.044 193.886 326.619 193.064C325.485 192.429 324.837 191.72 324.287 190.562L323.542 188.919L322.408 190.189C320.497 192.317 319.137 195.043 318.23 198.516C316.319 205.985 315.379 206.62 311.46 203.222C309.582 201.578 307.994 200.57 307.282 200.57C306.537 200.57 306.213 201.578 305.695 205.275C305.241 208.412 304.95 209.159 301.16 217.375C296.237 228.055 295.071 230.482 293.581 232.872C289.727 239.072 282.633 247.773 279.103 250.648C274.244 254.607 270.811 254.233 269.483 249.602C268.738 246.951 269.71 240.379 271.621 235.113C274.212 227.906 279.362 219.317 283.572 215.097C285.289 213.379 286.682 211.101 286.682 210.018C286.682 208.972 285.483 208.263 282.989 207.852C279.135 207.18 278.455 204.118 280.884 198.479C281.629 196.724 283.475 193.251 284.998 190.749C290.31 182.01 290.893 181.002 290.893 180.815C290.893 180.703 290.31 180.218 289.565 179.732C287.88 178.612 286.909 176.857 287.168 175.363C287.265 174.654 288.075 173.384 289.273 172.002C291.54 169.388 291.994 167.857 290.925 166.625C290.148 165.728 289.305 165.654 287.556 166.363C285.483 167.222 284.123 168.529 282.795 170.957C280.398 175.288 278.293 177.417 276.317 177.492C275.119 177.529 274.341 176.745 273.564 174.803C273.175 173.795 272.754 173.309 272.366 173.309C271.977 173.309 269.807 175.55 266.989 178.836C260.349 186.529 256.624 189.628 253.515 190.002C252.284 190.189 252.057 190.077 251.442 189.18C249.919 186.977 250.923 182.645 254.972 173.757C257.013 169.201 257.272 168.455 257.11 167.073C256.948 165.318 256.138 163.6 255.458 163.6C255.231 163.6 252.77 166.737 249.984 170.62C244.122 178.761 242.826 180.255 240.235 182.048C237.741 183.765 235.571 184.699 230.874 186.043C228.736 186.641 226.437 187.5 225.756 187.911C225.044 188.321 221.74 191.794 218.404 195.641C204.25 212.035 193.334 221.221 187.439 221.744C185.528 221.931 185.334 221.893 184.362 220.885C182.937 219.429 182.743 217.599 183.682 214.387C186.241 205.537 197.221 191.047 211.537 177.604C213.06 176.185 217.659 171.218 221.74 166.587C225.854 161.919 230.744 156.729 232.655 155.048C235.02 152.994 236.154 151.725 236.154 151.239C236.154 150.828 235.506 149.708 234.728 148.737C233.919 147.766 233.174 146.496 233.077 145.936C232.72 144.368 234.469 142.65 237.514 141.567C240.429 140.521 241.66 139.214 241.66 137.16C241.66 136.376 241.433 135.405 241.174 134.994C239.652 132.679 241.336 130.737 248.786 126.144C254.972 122.335 257.758 120.169 256.689 119.982C255.393 119.758 249.498 120.991 246.648 122.074C245.061 122.708 238.907 125.136 232.979 127.526C211.764 136.077 195.245 141.754 190.419 142.202C187.601 142.463 186.921 142.127 186.921 140.484C186.921 138.766 189.48 136.451 196.67 131.634C201.723 128.31 221.611 116.435 229.287 112.215C232.17 110.646 234.502 109.19 234.469 109.003C234.405 108.817 233.4 107.771 232.267 106.725C231.068 105.605 229.902 104.149 229.546 103.327L228.931 101.833L229.805 98.9578C230.291 97.352 230.647 95.5221 230.583 94.85C230.356 91.8625 226.339 91.6011 217.367 93.9537C207.974 96.4557 206.841 96.7171 202.306 97.464C185.561 100.19 171.568 98.9578 162.758 93.9537C156.669 90.5181 153.98 85.8501 155.503 81.2568C156.312 78.7921 159.098 76.2901 162.596 74.9084C167.519 72.9292 169.106 72.8545 192.265 73.2653L201.011 73.4146L206.776 71.8089C213.513 69.9417 216.201 69.4936 219.959 69.5682C224.234 69.6803 225.918 68.1492 225.918 64.0787C225.918 61.4273 225.109 59.8962 223.262 59C218.112 56.5353 214.355 53.137 212.898 49.6267C211.991 47.3487 211.991 46.2657 212.93 44.996C213.513 44.2492 214.064 43.9504 215.294 43.8384C216.946 43.6517 217.594 43.8757 225.109 46.9006C227.894 48.0209 229.19 48.3196 232.494 48.581C234.696 48.7678 237.287 48.8051 238.259 48.6931C239.976 48.469 240.04 48.4317 239.522 47.7968C238.55 46.5645 233.789 44.1745 227.797 41.8965C218.339 38.2742 214.582 35.8468 214.841 33.4195C215.035 31.3282 217.659 30.8428 221.967 32.1125C223.327 32.5232 225.206 33.3075 226.178 33.905C227.894 34.9506 227.927 34.9506 233.368 34.8385C239.425 34.7265 240.461 34.4651 238.745 33.4568C236.801 32.2992 233.692 31.0668 226.858 28.8262C209.821 23.1873 201.108 18.8554 197.512 14.2621C195.958 12.2829 195.731 11.0879 196.508 9.40745C199.229 3.54448 216.137 5.11292 228.315 12.3576C230.064 13.3659 233.789 16.0546 236.639 18.3699C243.215 23.5981 246.745 26.1375 251.215 28.7889C255.005 31.0295 258.049 32.2992 259.118 32.0751C259.798 31.9631 259.798 31.9631 259.021 30.0959C258.146 27.9673 255.555 23.9342 252.219 19.6396C248.85 15.3078 248.462 14.6356 248.462 13.2539C248.462 10.3037 250.502 9.55682 258.017 9.85557L263.523 10.0796L262.389 9.40745C261.742 8.99667 259.118 7.98839 256.559 7.12948C247.62 4.17932 244.122 2.46151 242.146 0.0341657C241.628 -0.638022 239.457 -2.50521 237.352 -4.14833C235.247 -5.75412 233.239 -7.43459 232.882 -7.84537C232.072 -8.77896 232.072 -10.2727 232.882 -10.7955C233.627 -11.2436 235.765 -11.2436 237.708 -10.8329C239.004 -10.5341 239.069 -10.5715 238.874 -11.3183C238.55 -12.4013 237.32 -14.6046 236.607 -15.3141C236.251 -15.6502 235.15 -16.4718 234.113 -17.1066C226.178 -22.2601 216.72 -34.2474 215.878 -40.1851C215.683 -41.5294 215.78 -41.8655 216.558 -42.7244C217.27 -43.5833 217.594 -43.6954 218.598 -43.5087C220.38 -43.2099 223.068 -41.4921 227.376 -37.8697C231.263 -34.6582 233.239 -32.4922 233.239 -31.5587C233.239 -30.7744 235.15 -27.9737 235.668 -27.9737C236.38 -27.9737 236.283 -28.3097 234.988 -30.8118C232.882 -34.7702 233.206 -37.3096 235.83 -37.3096C237.676 -37.3096 239.976 -35.1063 246.842 -26.8533C252.705 -19.7954 252.834 -19.6833 253.029 -20.7663C253.482 -23.4551 254.583 -23.4551 256.883 -20.7663L258.535 -18.8244L258.341 -20.1315C258.211 -20.841 256.462 -25.4343 254.422 -30.3637C252.381 -35.2557 250.34 -40.7079 249.919 -42.463C247.522 -51.911 249.369 -60.0519 253.45 -58.0727C254.94 -57.3632 256.624 -54.6744 258.665 -49.8197C260.543 -45.2638 262.389 -42.2763 265.175 -39.1768L266.989 -37.1229L266.827 -38.8407C266.697 -39.7743 265.952 -42.6124 265.143 -45.1144C264.333 -47.6538 263.523 -50.9027 263.361 -52.3965C263.167 -53.8529 262.649 -58.2221 262.163 -62.1432C260.997 -71.5538 260.9 -80.8524 261.936 -82.869C262.292 -83.5785 262.972 -84.4001 263.458 -84.6615C267.734 -87.0515 275.961 -70.2468 281.014 -48.8862C282.277 -43.3966 282.666 -42.1643 283.087 -42.1643C283.54 -42.1643 284.674 -45.5626 285.095 -48.2887C285.581 -51.5376 286.552 -52.9566 288.561 -53.2554C290.439 -53.5541 292.609 -52.5458 293.451 -51.0147C293.775 -50.3426 294.229 -48.8115 294.455 -47.5791C294.65 -46.3468 295.46 -42.3883 296.237 -38.8033C297.014 -35.2183 297.727 -31.5213 297.856 -30.5877C298.213 -27.9363 298.731 -25.733 298.99 -25.733C299.67 -25.733 301.257 -32.2682 302.132 -38.8033C302.974 -45.0771 302.942 -61.5457 302.1 -67.558C301.517 -71.7779 301.517 -71.8899 302.132 -75.4002L302.78 -78.9479L302.035 -82.981C298.958 -99.3749 300.156 -110.69 305.144 -112.408C310.65 -114.312 315.833 -102.811 315.833 -88.7319V-85.0722L316.805 -86.3419C318.91 -89.1427 320.918 -88.9187 322.246 -85.7818C322.991 -84.064 323.542 -81.0018 324.222 -74.504C324.805 -68.9024 326.424 -66.2883 328.011 -68.4543C328.886 -69.6119 329.275 -72.0766 328.983 -74.9521C328.4 -81.0018 328.4 -82.3462 328.918 -84.6988C329.566 -87.649 329.566 -89.1427 328.886 -94.2215C328.433 -97.7318 328.4 -99.0015 328.724 -102.848C329.469 -111.848 331.736 -116.478 335.429 -116.478C338.052 -116.478 341.421 -112.52 343.008 -107.516C344.984 -101.279 344.66 -94.7816 342.101 -88.8813C340.838 -86.0432 340.838 -85.483 342.004 -85.483C342.878 -85.5204 344.401 -86.3046 347.348 -88.2465C348.417 -88.956 349.13 -89.2174 349.68 -89.068C351.17 -88.6199 351.267 -87.761 350.328 -81.8607C349.227 -74.9147 349.227 -68.8277 350.393 -67.5207C351.3 -66.4377 352.239 -66.7365 354.15 -68.6783C356.644 -71.2177 357.292 -73.2343 357.616 -79.7321C357.81 -82.7943 358.231 -86.9021 358.588 -88.844C359.203 -92.2796 359.527 -96.3127 360.207 -109.57C360.596 -116.926 360.92 -118.719 362.993 -125.067C367.398 -138.661 372.45 -146.577 377.471 -147.884C379.835 -148.482 381.552 -147.884 383.528 -145.756C386.799 -142.246 388.451 -136.681 388.483 -129.175C388.483 -121.333 386.961 -115.881 382.912 -109.42C379.317 -103.707 376.046 -95.2671 374.426 -87.5369C374.102 -85.8938 373.811 -83.9893 373.811 -83.3171V-82.1221L376.337 -82.0847C377.698 -82.0847 379.35 -81.898 379.965 -81.6366C381.584 -81.0018 381.584 -79.7321 380.03 -75.1762C377.309 -67.2966 375.171 -58.0354 375.884 -57.2138C376.694 -56.2802 381.422 -61.471 386.961 -69.4252C390.265 -74.1305 391.884 -75.7737 394.281 -76.7446C398.039 -78.2757 400.565 -76.4085 400.435 -72.2633C400.338 -69.7987 399.399 -67.1099 396.289 -60.4254C392.014 -51.2015 389.131 -43.8447 389.423 -42.8365C389.488 -42.6124 390.589 -43.7701 391.884 -45.3758C396.711 -51.5376 402.573 -60.5747 406.395 -67.7448C409.213 -73.0849 410.217 -74.4666 411.869 -75.4002C413.359 -76.2218 413.391 -76.2218 416.792 -74.616C418.088 -74.0185 418.444 -74.3172 420.161 -77.6782C421.618 -80.5163 426.833 -87.3129 429.716 -90.1883C433.635 -94.0721 436.712 -95.8646 438.655 -95.4165C443.482 -94.2962 441.7 -84.8482 434.963 -75.8483C433.991 -74.5787 433.732 -73.9438 433.732 -72.7488C433.732 -71.1057 433.797 -71.0683 436.323 -71.8526C438.72 -72.5994 440.307 -72.5621 441.214 -71.7405C442.866 -70.1721 441.635 -66.9979 437.198 -61.3963C435.805 -59.6412 434.736 -58.2221 434.833 -58.2221C434.931 -58.2221 436.453 -58.8569 438.17 -59.6785C442.639 -61.7324 447.336 -63.4129 449.344 -63.6743C450.802 -63.861 451.19 -63.7863 451.968 -63.0768C454.203 -61.0602 452.518 -58.4835 441.02 -46.4588C431.821 -36.8241 423.367 -26.704 423.367 -25.2849C423.367 -24.7247 424.955 -25.2102 431.173 -27.6376C434.315 -28.8326 437.263 -29.8408 437.716 -29.8408C438.461 -29.8408 439.562 -28.6832 439.562 -27.899C439.562 -27.7496 438.753 -26.5546 437.781 -25.2102C436.161 -23.0443 435.352 -21.4385 435.352 -20.4676C435.352 -19.7207 437.295 -20.2061 439.757 -21.5879C442.639 -23.1937 445.781 -25.4716 451.903 -30.4757C458.122 -35.5544 461.944 -37.6457 469.815 -40.2971C477.005 -42.6871 482.609 -43.5087 485.621 -42.5377C486.269 -42.3137 487.176 -41.6415 487.629 -41.0066C489.605 -38.3179 488.18 -34.0233 483.613 -28.7205C476.843 -20.841 466.414 -13.6336 453.911 -8.14412C447.239 -5.2313 443.773 -2.46787 443.773 -0.0405218C443.773 1.41588 444.842 1.67729 449.441 1.30385C451.741 1.15448 455.272 1.0051 457.247 0.96776C461.361 0.96776 462.235 1.41588 462.235 3.50713C462.235 5.93448 457.344 9.3701 449.441 12.5443C442.51 15.3078 440.243 16.9509 441.668 18.1832C442.834 19.1915 444.583 19.5276 450.251 19.789C456.47 20.0504 458.057 20.5359 458.964 22.4778C459.385 23.3367 459.353 23.5981 458.802 24.8678C457.928 26.959 455.207 28.9382 448.923 32.0378C442.639 35.1 439.465 37.2659 440.307 37.826C441.311 38.4609 446.138 38.6103 450.737 38.1621C456.308 37.602 457.053 37.4153 464.503 34.8759C482.9 28.6395 502.237 24.2329 517.946 22.6271C531.744 21.2081 539 22.6645 539 26.8843C539 33.4195 517.298 44.3239 472.762 60.1576C456.178 66.0579 450.219 68.4479 450.705 69.0081C450.802 69.1201 453.134 69.0081 455.887 68.7467C461.652 68.1865 464.244 68.56 466.057 70.0911C467.806 71.6595 467.353 74.3482 465.053 75.6926C463.175 76.8503 462.073 77.037 456.243 77.3357C450.283 77.6345 447.595 78.232 446.526 79.4643C446.04 80.0245 446.04 80.0992 446.526 80.6593C446.947 81.1448 447.984 81.2568 452.939 81.3315C456.178 81.3689 459.547 81.5929 460.454 81.817C465.507 83.124 466.511 86.6343 462.916 90.5181C460.907 92.684 459.385 93.5803 456.697 94.1031C452.616 94.8873 448.664 94.3271 442.607 92.0865C438.332 90.5181 437.068 90.4061 436.777 91.6757C436.421 93.3562 436.777 94.962 437.651 95.7462C438.915 96.8292 440.728 97.0906 446.688 97.1279C455.207 97.1653 460.551 98.0989 468.551 100.9C475.127 103.252 477.2 105.53 475.029 108.032C474.155 109.041 472.956 109.638 468.681 111.094C461.75 113.484 463.531 114.941 474.705 115.987C490.577 117.48 501.362 120.02 508.618 123.978C513.152 126.443 515.614 129.692 515.258 132.717C515.128 133.949 514.772 134.584 513.638 135.816C510.95 138.617 505.832 139.737 499.225 138.99C495.176 138.542 488.147 136.712 486.366 135.704C485.848 135.368 483.03 133.277 480.115 131.036C473.928 126.219 470.786 124.389 468.811 124.389C467.159 124.389 467.029 124.613 466.316 128.683C465.41 133.837 464.049 135.965 461.782 135.965C461.328 135.965 458.511 134.696 455.531 133.127C450.024 130.252 444.745 127.974 444.421 128.385C444.324 128.497 446.397 130.961 449.02 133.874C451.644 136.75 454.008 139.7 454.3 140.372C454.591 141.082 454.786 142.277 454.721 143.135C454.591 145.301 453.425 146.235 450.964 146.198C449.377 146.198 448.534 145.862 445.069 143.882C442.866 142.613 440.761 141.567 440.437 141.567C439.465 141.567 441.441 144.405 445.878 149.334C450.672 154.712 453.069 156.803 457.118 159.156C464.665 163.525 474.349 170.508 479.758 175.475C490.9 185.707 494.787 195.342 489.022 198.33C483.807 201.093 473.28 195.529 462.559 184.363C460.551 182.272 458.122 180.405 457.442 180.405C456.697 180.405 454.786 183.056 454.429 184.587C454.267 185.371 453.782 186.454 453.361 187.014C452.616 187.985 452.583 188.023 450.445 187.649C449.085 187.425 448.308 187.388 448.308 187.612C448.308 187.836 449.603 189.554 451.19 191.421C453.361 193.998 454.429 195.641 455.369 197.844C457.021 201.616 459.158 204.529 462.948 208.226C464.6 209.831 468.066 213.566 470.657 216.441C474.576 220.848 476.26 222.416 480.6 225.702C487.046 230.632 488.439 231.976 491.548 236.42C497.411 244.822 500.294 251.47 499.678 255.167C499.581 255.876 499.03 256.922 498.512 257.519C495.856 260.47 489.216 258.117 480.989 251.358C476.487 247.661 472.762 243.441 468.292 236.98C463.272 229.773 460.519 226.188 458.575 224.395C457.701 223.611 456.891 222.976 456.794 222.976C456.664 222.976 456.567 224.395 456.567 226.151C456.567 229.101 456.502 229.362 455.66 230.333C454.915 231.192 454.494 231.379 453.231 231.341C449.182 231.267 443.287 225.03 436.809 214.014C432.858 207.329 431.789 206.284 430.688 208.114C429.943 209.309 430.072 210.242 431.173 212.147C432.048 213.603 432.145 214.051 431.951 215.508C431.562 218.645 430.202 219.802 428.161 218.831C425.764 217.711 421.359 211.4 414.201 198.852C411.351 193.886 409.505 191.085 408.144 189.591C406.039 187.388 404.095 186.006 402.962 186.006C402.411 186.006 402.314 186.23 402.314 187.537C402.314 189.479 403.804 194.595 405.65 199.151C406.46 201.056 408.565 206.246 410.411 210.653C426.218 249.005 433.538 275.183 429.198 277.872C428.323 278.432 427.546 278.32 426.444 277.536Z" fill="#FFEF60"/>
<path d="M212.509 253.15C211.084 252.03 210.145 249.827 209.983 247.213C209.724 243.254 212.153 238.848 216.979 234.478C218.177 233.395 220.445 231.267 222.064 229.736C225.627 226.338 228.218 224.844 230.583 224.844C231.975 224.844 232.461 225.03 233.077 225.777C234.34 227.196 234.113 228.429 231.425 234.665C227.57 243.516 225.238 247.362 221.837 250.462C218.048 253.897 214.679 254.831 212.509 253.15Z" fill="#FFEF60"/>
<path d="M131.469 206.583C128.911 205.612 127.324 202.998 127.064 199.188C126.773 194.969 128.813 191.682 133.316 189.068C139.405 185.595 155.082 180.367 162.207 179.471C163.924 179.247 164.475 179.322 165.673 180.031C167.584 181.077 167.843 182.01 166.613 183.467C164.993 185.409 155.891 194.296 152.102 197.583C145.268 203.52 139.664 206.508 134.935 206.769C133.51 206.844 131.955 206.769 131.469 206.583Z" fill="#FFEF60"/>
</g>
<g clip-path="url(#clip4_105_915)" filter="url(#filter1_d_105_915)">
<path d="M190.431 531.537C188.02 532.209 186.864 533.016 176.867 540.997C168.729 547.474 168.428 547.77 168.126 549.409C167.875 550.699 167.976 551.264 168.579 551.909C169.634 553.011 170.789 553.306 174.004 553.306C178.575 553.279 182.996 551.909 190.13 548.227C200.679 542.798 203.543 539.922 201.835 536.402C200.428 533.419 196.61 530.973 193.445 531C192.792 531.027 191.436 531.269 190.431 531.537Z" fill="#4791FF"/>
<path d="M126.431 552.205C116.233 555.564 95.4357 575.666 72.1765 604.745C69.4638 608.131 66.7511 611.195 66.1482 611.571L65.0431 612.243L64.2895 611.195C63.4355 610.093 62.9834 608.884 61.627 604.288C60.5721 600.687 58.864 598.994 56.1513 598.994C53.539 598.994 49.1685 602.73 46.3051 607.46C44.5971 610.255 42.6379 612.431 41.7336 612.431C41.4322 612.431 40.7289 611.867 40.1261 611.141C39.2218 610.093 39.0209 609.368 39.0209 607.056C39.0209 605.39 39.3223 603.724 39.7242 602.998C41.0806 600.633 39.7242 599.746 33.7964 599.155C29.2751 598.698 25.9596 597.623 26.4117 596.763C27.3662 594.882 28.3207 584.965 28.0695 579.241C27.7178 570.506 26.1605 566.798 22.3426 565.588C20.936 565.158 20.5843 565.131 19.027 565.481C12.5466 566.932 7.07089 578.435 5.16192 594.586C4.76004 598.188 4.25768 598.913 1.49471 599.8C-0.0123676 600.284 -0.112839 600.284 -1.36874 599.827C-3.52888 599.021 -6.84444 598.188 -7.94963 598.188C-8.55246 598.188 -9.55718 598.483 -10.2102 598.86C-11.2652 599.397 -11.4661 599.773 -11.4661 601.198C-11.4661 602.138 -11.1145 603.966 -10.7126 605.31C-10.3107 606.626 -9.95907 608.454 -9.95907 609.341C-9.95907 610.765 -10.1098 611.007 -11.3154 611.518L-12.722 612.109L-12.9732 616.678C-13.1239 619.204 -13.4253 621.354 -13.6765 621.488C-14.3798 621.865 -17.1428 619.795 -20.4584 616.436C-22.1664 614.662 -24.1758 613.023 -24.8289 612.808C-25.9341 612.405 -26.1852 612.405 -28.3956 612.996C-30.1539 613.453 -31.1586 613.963 -32.0126 614.796L-33.168 615.979L-34.9263 615.065C-37.8902 613.533 -40.0001 611.571 -41.4067 609.072C-44.3706 603.697 -45.8275 603.24 -51.906 605.686C-54.8197 606.868 -57.2812 607.594 -58.3864 607.594C-59.5418 607.594 -60.0442 606.868 -60.848 604.208C-61.5513 601.95 -62.0034 601.413 -67.881 595.5C-75.5168 587.814 -77.3253 586.067 -79.6362 584.347C-85.6143 579.886 -96.6159 573.624 -102.092 571.555C-109.627 568.706 -114.952 568.975 -117.012 572.307C-118.167 574.215 -116.66 578.945 -113.696 582.735C-109.677 587.921 -101.69 594.103 -95.1591 597.14C-92.4966 598.376 -90.3364 600.015 -90.3364 600.795C-90.3364 601.547 -92.1952 602.058 -96.0633 602.353C-102.041 602.837 -103.096 605.041 -99.3286 609.099C-98.1732 610.362 -95.3098 612.861 -92.9487 614.662C-84.71 620.951 -83.8058 621.676 -83.8058 621.811C-83.8058 621.891 -84.71 622.241 -85.8654 622.59C-88.4777 623.396 -89.9848 624.66 -89.5829 625.735C-89.4322 626.245 -88.1763 627.159 -86.3176 628.153C-82.801 630.035 -82.0977 631.136 -83.7555 632.023C-84.9612 632.668 -86.2673 632.722 -88.9801 632.211C-92.1952 631.593 -94.3051 630.653 -96.3647 628.906C-100.082 625.788 -103.348 624.256 -106.412 624.203C-108.271 624.176 -109.476 624.74 -110.682 626.138C-111.285 626.863 -111.938 627.213 -112.541 627.213C-113.143 627.213 -116.509 625.6 -120.88 623.235C-131.178 617.699 -136.955 615.468 -141.778 615.2C-143.687 615.065 -144.039 615.146 -144.993 615.791C-147.354 617.376 -145.797 620.494 -139.517 626.89C-136.352 630.169 -135.951 630.706 -136.202 631.701C-136.453 632.964 -137.709 634.2 -138.764 634.2C-139.115 634.2 -142.933 631.943 -147.254 629.148C-156.346 623.289 -158.356 622.214 -162.375 620.924C-166.243 619.688 -169.609 619.016 -176.893 618.048C-180.208 617.618 -183.775 617 -184.83 616.705C-185.935 616.409 -191.059 613.91 -196.234 611.141C-218.187 599.343 -235.116 592.732 -244.259 592.356C-247.223 592.221 -247.524 592.248 -249.031 592.974C-251.242 594.022 -251.543 595.339 -250.086 597.65C-246.118 604.02 -229.088 614.447 -206.884 624.122C-204.523 625.143 -197.389 628.718 -191.059 632.05C-184.679 635.41 -177.094 639.145 -174.13 640.355C-170.463 641.833 -168.704 642.746 -168.704 643.096C-168.704 643.391 -169.709 644.198 -170.915 644.896C-172.171 645.595 -173.326 646.509 -173.477 646.912C-174.029 648.041 -171.317 649.277 -166.594 650.056C-162.073 650.809 -160.164 651.75 -160.164 653.228C-160.164 653.792 -160.516 654.491 -160.918 654.786C-163.279 656.453 -160.667 657.85 -149.112 661.156C-139.517 663.897 -135.197 665.456 -136.855 665.59C-138.864 665.751 -148.007 664.865 -152.428 664.085C-154.889 663.628 -164.434 661.881 -173.627 660.161C-206.532 654.007 -232.152 649.922 -239.637 649.6C-244.008 649.411 -245.063 649.653 -245.063 650.836C-245.063 652.072 -241.094 653.738 -229.942 657.205C-222.105 659.597 -191.26 668.143 -179.354 671.18C-174.883 672.309 -171.266 673.357 -171.317 673.491C-171.417 673.626 -172.974 674.378 -174.733 675.131C-176.591 675.937 -178.4 676.985 -178.952 677.576L-179.907 678.651L-178.551 680.721C-177.797 681.876 -177.244 683.193 -177.345 683.677C-177.697 685.827 -183.926 686.015 -197.841 684.322C-212.41 682.521 -214.168 682.333 -221.201 681.796C-247.173 679.834 -268.875 680.721 -282.539 684.322C-291.983 686.795 -296.153 690.154 -293.792 693.46C-292.536 695.233 -288.215 697.034 -282.79 698.028C-275.154 699.453 -272.693 699.506 -236.774 699.211L-223.21 699.103L-214.268 700.259C-203.819 701.603 -199.65 701.925 -193.822 701.871C-187.191 701.791 -184.579 702.893 -184.579 705.822C-184.579 707.73 -185.835 708.832 -188.698 709.477C-196.686 711.251 -202.513 713.696 -204.774 716.223C-206.18 717.862 -206.18 718.641 -204.723 719.555C-203.819 720.093 -202.965 720.308 -201.056 720.388C-198.494 720.523 -197.489 720.361 -185.835 718.185C-181.514 717.378 -179.505 717.163 -174.381 716.975C-170.965 716.841 -166.946 716.814 -165.439 716.895C-162.777 717.056 -162.676 717.083 -163.48 717.54C-164.987 718.426 -172.372 720.146 -181.665 721.786C-196.334 724.393 -202.161 726.14 -201.76 727.886C-201.458 729.391 -197.389 729.741 -190.708 728.827C-188.598 728.531 -185.684 727.967 -184.177 727.537C-181.514 726.785 -181.464 726.785 -173.025 726.865C-163.631 726.946 -162.023 727.134 -164.685 727.86C-167.7 728.693 -172.522 729.58 -183.122 731.192C-209.546 735.25 -223.06 738.368 -228.636 741.673C-231.047 743.098 -231.399 743.958 -230.193 745.167C-225.973 749.386 -199.75 748.258 -180.861 743.044C-178.149 742.318 -172.372 740.383 -167.951 738.717C-157.753 734.955 -152.277 733.127 -145.345 731.219C-139.467 729.606 -134.745 728.693 -133.087 728.854C-132.032 728.935 -132.032 728.935 -133.238 730.278C-134.594 731.81 -138.613 734.713 -143.787 737.803C-149.012 740.921 -149.615 741.405 -149.615 742.399C-149.615 744.522 -146.45 745.06 -134.795 744.845L-126.255 744.683L-128.013 745.167C-129.018 745.463 -133.087 746.188 -137.056 746.806C-150.921 748.93 -156.346 750.166 -159.411 751.913C-160.214 752.396 -163.58 753.74 -166.846 754.923C-170.111 756.078 -173.226 757.288 -173.778 757.583C-175.034 758.255 -175.034 759.33 -173.778 759.706C-172.623 760.029 -169.307 760.029 -166.293 759.733C-164.284 759.518 -164.183 759.545 -164.485 760.083C-164.987 760.862 -166.896 762.448 -168.001 762.958C-168.554 763.2 -170.262 763.791 -171.869 764.248C-184.177 767.957 -198.846 776.584 -200.152 780.857C-200.453 781.825 -200.303 782.066 -199.097 782.685C-197.992 783.303 -197.489 783.383 -195.932 783.249C-193.169 783.034 -189 781.798 -182.318 779.191C-176.29 776.88 -173.226 775.321 -173.226 774.649C-173.226 774.085 -170.262 772.069 -169.458 772.069C-168.353 772.069 -168.503 772.311 -170.513 774.111C-173.778 776.96 -173.276 778.788 -169.207 778.788C-166.343 778.788 -162.777 777.202 -152.127 771.263C-143.034 766.183 -142.833 766.103 -142.531 766.882C-141.828 768.817 -140.12 768.817 -136.553 766.882L-133.991 765.485L-134.293 766.425C-134.494 766.936 -137.206 770.241 -140.371 773.789C-143.536 777.31 -146.701 781.233 -147.354 782.496C-151.072 789.296 -148.208 795.155 -141.878 793.73C-139.568 793.22 -136.955 791.285 -133.79 787.791C-130.877 784.512 -128.013 782.362 -123.693 780.131L-120.88 778.653L-121.131 779.89C-121.332 780.561 -122.487 782.604 -123.743 784.405C-124.999 786.232 -126.255 788.57 -126.506 789.645C-126.808 790.693 -127.611 793.838 -128.365 796.66C-130.173 803.432 -130.324 810.124 -128.717 811.575C-128.164 812.086 -127.109 812.677 -126.356 812.865C-119.724 814.585 -106.964 802.491 -99.1277 787.119C-97.1685 783.168 -96.5657 782.281 -95.9126 782.281C-95.2093 782.281 -93.451 784.727 -92.798 786.689C-92.0444 789.027 -90.5374 790.048 -87.4227 790.263C-84.5091 790.478 -81.1433 789.753 -79.8371 788.651C-79.3348 788.167 -78.6315 787.065 -78.2798 786.178C-77.9784 785.291 -76.7225 782.443 -75.5168 779.863C-74.3112 777.283 -73.206 774.622 -73.0051 773.95C-72.4525 772.042 -71.6487 770.456 -71.2468 770.456C-70.1918 770.456 -67.7303 775.16 -66.3739 779.863C-65.0678 784.378 -65.118 796.23 -66.4242 800.556C-67.3284 803.593 -67.3284 803.674 -66.3739 806.2L-65.3692 808.753L-66.5246 811.656C-71.297 823.454 -69.4383 831.597 -61.702 832.833C-53.1619 834.204 -45.1242 825.926 -45.1242 815.795V813.161L-43.6171 814.075C-40.3518 816.09 -37.2371 815.929 -35.1775 813.671C-34.022 812.435 -33.168 810.231 -32.1131 805.555C-31.2088 801.524 -28.697 799.643 -26.2355 801.201C-24.8791 802.035 -24.2763 803.808 -24.7284 805.878C-25.6327 810.231 -25.6327 811.199 -24.8289 812.892C-23.8242 815.015 -23.8242 816.09 -24.8791 819.745C-25.5824 822.271 -25.6327 823.185 -25.1303 825.953C-23.9749 832.43 -20.4584 835.763 -14.7315 835.763C-10.6624 835.763 -5.43784 832.914 -2.97628 829.313C0.0881041 824.825 -0.414254 820.148 -4.38289 815.902C-6.34208 813.86 -6.34208 813.456 -4.53359 813.456C-3.17723 813.483 -0.816141 814.048 3.75532 815.445C5.4131 815.956 6.51829 816.144 7.3723 816.036C9.68315 815.714 9.83386 815.096 8.37702 810.85C6.669 805.851 6.669 801.47 8.47749 800.53C9.88409 799.75 11.3409 799.965 14.3048 801.363C18.173 803.19 19.1777 804.641 19.6801 809.318C19.9815 811.521 20.6346 814.478 21.1872 815.875C22.1416 818.348 22.644 821.25 23.699 830.791C24.3018 836.085 24.8041 837.375 28.0192 841.944C34.8513 851.726 42.6881 857.424 50.4747 858.365C54.1419 858.795 56.8044 858.365 59.8688 856.833C64.9426 854.306 67.5046 850.302 67.5548 844.9C67.5548 839.256 65.1938 835.333 58.9143 830.683C53.3381 826.571 48.2643 820.498 45.7525 814.935C45.2501 813.752 44.798 812.381 44.798 811.898V811.038L48.7164 811.011C50.8263 811.011 53.3883 810.876 54.3428 810.688C56.8546 810.231 56.8546 809.318 54.4433 806.039C50.2235 800.368 46.9079 793.703 48.0131 793.112C49.269 792.44 56.6034 796.176 65.1938 801.9C70.3178 805.286 72.8296 806.469 76.5471 807.168C82.3744 808.27 86.2928 806.926 86.0919 803.943C85.9412 802.169 84.4843 800.234 79.6617 795.423C73.0306 788.785 68.5596 783.491 69.0117 782.765C69.1122 782.604 70.8202 783.437 72.8296 784.593C80.3148 789.027 89.4074 795.531 95.3353 800.691C99.7058 804.534 101.263 805.528 103.825 806.2C106.136 806.791 106.186 806.791 111.461 805.636C113.47 805.206 114.023 805.421 116.686 807.84C118.946 809.882 127.034 814.773 131.505 816.843C137.584 819.638 142.356 820.928 145.37 820.605C152.855 819.799 150.092 813 139.643 806.523C138.136 805.609 137.734 805.152 137.734 804.292C137.734 803.11 137.835 803.083 141.753 803.647C145.471 804.185 147.932 804.158 149.339 803.566C151.901 802.438 149.992 800.153 143.11 796.122C140.949 794.859 139.292 793.838 139.442 793.838C139.593 793.838 141.954 794.295 144.617 794.886C151.549 796.364 158.833 797.573 161.948 797.761C164.209 797.896 164.811 797.842 166.017 797.331C169.483 795.88 166.871 794.026 149.037 785.372C134.77 778.438 121.659 771.155 121.659 770.134C121.659 769.731 124.12 770.08 133.766 771.827C138.639 772.687 143.21 773.413 143.913 773.413C145.069 773.413 146.777 772.58 146.777 772.015C146.777 771.908 145.521 771.048 144.014 770.08C141.502 768.521 140.246 767.366 140.246 766.667C140.246 766.13 143.26 766.479 147.078 767.473C151.549 768.629 156.422 770.268 165.917 773.87C175.562 777.525 181.49 779.03 193.697 780.938C204.849 782.658 213.54 783.249 218.212 782.55C219.217 782.389 220.623 781.905 221.327 781.448C224.391 779.513 222.181 776.423 215.098 772.606C204.598 766.936 188.422 761.749 169.031 757.798C158.683 755.702 153.307 753.713 153.307 751.966C153.307 750.918 154.965 750.73 162.099 750.999C165.665 751.106 171.141 751.214 174.206 751.241C180.585 751.241 181.942 750.918 181.942 749.413C181.942 747.666 174.356 745.194 162.099 742.91C151.348 740.921 147.832 739.738 150.042 738.851C151.851 738.126 154.563 737.884 163.355 737.696C173 737.508 175.461 737.158 176.868 735.761C177.521 735.143 177.471 734.955 176.617 734.041C175.26 732.536 171.041 731.111 161.295 728.881C151.549 726.677 146.626 725.118 147.932 724.715C149.489 724.258 156.975 724.151 164.108 724.473C172.749 724.876 173.904 725.011 185.458 726.838C213.992 731.326 243.983 734.498 268.348 735.653C289.748 736.675 301.001 735.626 301.001 732.59C301.001 727.886 267.343 720.039 198.269 708.644C172.548 704.398 163.304 702.678 164.058 702.275C164.209 702.194 167.826 702.275 172.096 702.463C181.038 702.866 185.056 702.597 187.87 701.495C190.582 700.366 189.879 698.431 186.312 697.464C183.399 696.631 181.691 696.496 172.648 696.281C163.405 696.066 159.235 695.636 157.577 694.75C156.824 694.346 156.824 694.293 157.577 693.89C158.231 693.54 159.838 693.46 167.524 693.406C172.548 693.379 177.772 693.218 179.179 693.056C187.016 692.116 188.573 689.59 182.997 686.795C179.882 685.236 177.521 684.591 173.352 684.215C167.022 683.65 160.893 684.053 151.499 685.666C144.868 686.795 142.909 686.875 142.456 685.961C141.904 684.752 142.456 683.596 143.813 683.032C145.772 682.253 148.585 682.065 157.829 682.038C171.041 682.011 179.33 681.339 191.738 679.323C201.936 677.63 205.151 675.991 201.785 674.19C200.429 673.465 198.57 673.035 191.939 671.986C181.188 670.266 183.951 669.218 201.283 668.466C225.898 667.391 242.627 665.563 253.88 662.715C260.913 660.941 264.731 658.603 264.178 656.426C263.977 655.539 263.424 655.082 261.666 654.195C257.497 652.18 249.559 651.373 239.311 651.911C233.032 652.233 222.131 653.55 219.368 654.276C218.564 654.518 214.193 656.023 209.672 657.635C200.077 661.102 195.204 662.419 192.14 662.419C189.578 662.419 189.377 662.258 188.272 659.328C186.865 655.62 184.755 654.088 181.239 654.088C180.535 654.088 176.165 655.001 171.543 656.13C163.003 658.2 154.814 659.839 154.312 659.543C154.161 659.463 157.377 657.689 161.446 655.593C165.515 653.523 169.182 651.4 169.634 650.916C170.086 650.406 170.388 649.546 170.287 648.928C170.086 647.369 168.278 646.697 164.46 646.724C161.998 646.724 160.692 646.966 155.317 648.39C151.901 649.304 148.635 650.056 148.133 650.056C146.626 650.056 149.69 648.014 156.573 644.466C164.008 640.596 167.725 639.091 174.005 637.398C185.71 634.254 200.73 629.228 209.119 625.654C226.401 618.29 232.429 611.356 223.487 609.206C215.399 607.218 199.072 611.222 182.444 619.258C179.33 620.763 175.562 622.106 174.507 622.106C173.352 622.106 170.388 620.198 169.835 619.096C169.584 618.532 168.83 617.753 168.177 617.35C167.022 616.651 166.972 616.624 163.656 616.893C161.546 617.054 160.34 617.081 160.34 616.92C160.34 616.758 162.35 615.522 164.811 614.178C168.177 612.324 169.835 611.141 171.292 609.556C173.854 606.841 177.169 604.745 183.047 602.085C185.609 600.929 190.984 598.241 195.003 596.172C201.082 593.001 203.694 591.872 210.426 589.507C220.423 585.96 222.583 584.992 227.405 581.794C236.498 575.747 240.969 570.963 240.014 568.303C239.864 567.792 239.01 567.04 238.206 566.61C234.087 564.486 223.788 566.18 211.028 571.044C204.046 573.705 198.269 576.741 191.336 581.391C183.549 586.578 179.279 589.158 176.265 590.448C174.909 591.012 173.653 591.469 173.502 591.469C173.301 591.469 173.151 590.448 173.151 589.185C173.151 587.061 173.05 586.873 171.744 586.175C170.589 585.556 169.935 585.422 167.976 585.449C161.697 585.503 152.554 589.991 142.507 597.919C136.378 602.73 134.72 603.482 133.012 602.165C131.857 601.305 132.058 600.633 133.766 599.263C135.122 598.215 135.273 597.892 134.971 596.844C134.369 594.586 132.259 593.753 129.094 594.452C125.376 595.258 118.544 599.8 107.442 608.83C103.021 612.405 100.158 614.42 98.048 615.495C94.7827 617.081 91.7685 618.075 90.0103 618.075C89.1563 618.075 89.0056 617.914 89.0056 616.973C89.0056 615.576 91.3164 611.894 94.1798 608.615C95.4357 607.245 98.7011 603.509 101.565 600.338C126.08 572.737 137.433 553.898 130.701 551.963C129.345 551.56 128.139 551.64 126.431 552.205Z" fill="#4791FF"/>
</g>
<g filter="url(#filter2_d_105_915)">
<path d="M86.1782 273C84.1242 294.099 84.8956 315.327 84.8956 336.497C84.8956 342.219 82.7021 352.021 85.1807 357.576C87.6245 363.053 100.039 360.829 104.704 360.829C115.629 360.829 126.554 360.829 137.479 360.829C143.82 360.829 152.369 359.429 158 362" stroke="black" stroke-width="10" stroke-linecap="round"/>
</g>
<g filter="url(#filter3_d_105_915)">
<path d="M161.777 280C167.168 280.35 164.168 304.07 164.168 307.304C164.168 313.24 164.471 319.182 162.839 325.067C161.27 330.728 158.459 336.044 158.191 341.822C157.761 351.115 158.191 360.449 158.191 369.746C158.191 401.498 158.191 433.249 158.191 465" stroke="black" stroke-width="10" stroke-linecap="round"/>
</g>
<g filter="url(#filter4_d_105_915)">
<path d="M241 312C246.08 350.658 243.171 390.151 243.171 429" stroke="black" stroke-width="10" stroke-linecap="round"/>
</g>
<g filter="url(#filter5_d_105_915)">
<path d="M200 364C233.668 364 267.323 364 301 364" stroke="black" stroke-width="10" stroke-linecap="round"/>
</g>
</g>
<rect x="5" y="5" width="390" height="690" rx="20" stroke="black" stroke-width="10"/>
<defs>
<filter id="filter0_d_105_915" x="123" y="-171" width="420" height="486" filterUnits="userSpaceOnUse" color-interpolation-filters="sRGB">
<feFlood flood-opacity="0" result="BackgroundImageFix"/>
<feColorMatrix in="SourceAlpha" type="matrix" values="0 0 0 0 0 0 0 0 0 0 0 0 0 0 0 0 0 0 127 0" result="hardAlpha"/>
<feOffset dy="4"/>
<feGaussianBlur stdDeviation="2"/>
<feComposite in2="hardAlpha" operator="out"/>
<feColorMatrix type="matrix" values="0 0 0 0 0 0 0 0 0 0 0 0 0 0 0 0 0 0 0.25 0"/>
<feBlend mode="normal" in2="BackgroundImageFix" result="effect1_dropShadow_105_915"/>
<feBlend mode="normal" in="SourceGraphic" in2="effect1_dropShadow_105_915" result="shape"/>
</filter>
<filter id="filter1_d_105_915" x="-342" y="531" width="647" height="352" filterUnits="userSpaceOnUse" color-interpolation-filters="sRGB">
<feFlood flood-opacity="0" result="BackgroundImageFix"/>
<feColorMatrix in="SourceAlpha" type="matrix" values="0 0 0 0 0 0 0 0 0 0 0 0 0 0 0 0 0 0 127 0" result="hardAlpha"/>
<feOffset dy="4"/>
<feGaussianBlur stdDeviation="2"/>
<feComposite in2="hardAlpha" operator="out"/>
<feColorMatrix type="matrix" values="0 0 0 0 0 0 0 0 0 0 0 0 0 0 0 0 0 0 0.25 0"/>
<feBlend mode="normal" in2="BackgroundImageFix" result="effect1_dropShadow_105_915"/>
<feBlend mode="normal" in="SourceGraphic" in2="effect1_dropShadow_105_915" result="shape"/>
</filter>
<filter id="filter2_d_105_915" x="74.998" y="268" width="92.0029" height="107.001" filterUnits="userSpaceOnUse" color-interpolation-filters="sRGB">
<feFlood flood-opacity="0" result="BackgroundImageFix"/>
<feColorMatrix in="SourceAlpha" type="matrix" values="0 0 0 0 0 0 0 0 0 0 0 0 0 0 0 0 0 0 127 0" result="hardAlpha"/>
<feOffset dy="4"/>
<feGaussianBlur stdDeviation="2"/>
<feComposite in2="hardAlpha" operator="out"/>
<feColorMatrix type="matrix" values="0 0 0 0 0 0 0 0 0 0 0 0 0 0 0 0 0 0 0.25 0"/>
<feBlend mode="normal" in2="BackgroundImageFix" result="effect1_dropShadow_105_915"/>
<feBlend mode="normal" in="SourceGraphic" in2="effect1_dropShadow_105_915" result="shape"/>
</filter>
<filter id="filter3_d_105_915" x="149.001" y="275" width="24.999" height="203" filterUnits="userSpaceOnUse" color-interpolation-filters="sRGB">
<feFlood flood-opacity="0" result="BackgroundImageFix"/>
<feColorMatrix in="SourceAlpha" type="matrix" values="0 0 0 0 0 0 0 0 0 0 0 0 0 0 0 0 0 0 127 0" result="hardAlpha"/>
<feOffset dy="4"/>
<feGaussianBlur stdDeviation="2"/>
<feComposite in2="hardAlpha" operator="out"/>
<feColorMatrix type="matrix" values="0 0 0 0 0 0 0 0 0 0 0 0 0 0 0 0 0 0 0.25 0"/>
<feBlend mode="normal" in2="BackgroundImageFix" result="effect1_dropShadow_105_915"/>
<feBlend mode="normal" in="SourceGraphic" in2="effect1_dropShadow_105_915" result="shape"/>
</filter>
<filter id="filter4_d_105_915" x="231.999" y="307" width="21" height="135" filterUnits="userSpaceOnUse" color-interpolation-filters="sRGB">
<feFlood flood-opacity="0" result="BackgroundImageFix"/>
<feColorMatrix in="SourceAlpha" type="matrix" values="0 0 0 0 0 0 0 0 0 0 0 0 0 0 0 0 0 0 127 0" result="hardAlpha"/>
<feOffset dy="4"/>
<feGaussianBlur stdDeviation="2"/>
<feComposite in2="hardAlpha" operator="out"/>
<feColorMatrix type="matrix" values="0 0 0 0 0 0 0 0 0 0 0 0 0 0 0 0 0 0 0.25 0"/>
<feBlend mode="normal" in2="BackgroundImageFix" result="effect1_dropShadow_105_915"/>
<feBlend mode="normal" in="SourceGraphic" in2="effect1_dropShadow_105_915" result="shape"/>
</filter>
<filter id="filter5_d_105_915" x="191" y="359" width="119" height="18" filterUnits="userSpaceOnUse" color-interpolation-filters="sRGB">
<feFlood flood-opacity="0" result="BackgroundImageFix"/>
<feColorMatrix in="SourceAlpha" type="matrix" values="0 0 0 0 0 0 0 0 0 0 0 0 0 0 0 0 0 0 127 0" result="hardAlpha"/>
<feOffset dy="4"/>
<feGaussianBlur stdDeviation="2"/>
<feComposite in2="hardAlpha" operator="out"/>
<feColorMatrix type="matrix" values="0 0 0 0 0 0 0 0 0 0 0 0 0 0 0 0 0 0 0.25 0"/>
<feBlend mode="normal" in2="BackgroundImageFix" result="effect1_dropShadow_105_915"/>
<feBlend mode="normal" in="SourceGraphic" in2="effect1_dropShadow_105_915" result="shape"/>
</filter>
<clipPath id="clip0_105_915">
<rect width="400" height="700" rx="25" fill="white"/>
</clipPath>
<clipPath id="clip1_105_915">
<rect width="556" height="518" fill="white" transform="translate(97 431)"/>
</clipPath>
<clipPath id="clip2_105_915">
<rect width="378" height="478" fill="white" transform="matrix(-1 0 0 -1 241 273)"/>
</clipPath>
<clipPath id="clip3_105_915">
<rect width="412" height="478" fill="white" transform="matrix(1 0 0 -1 127 307)"/>
</clipPath>
<clipPath id="clip4_105_915">
<rect width="639" height="344" fill="white" transform="translate(-338 531)"/>
</clipPath>
</defs>
</svg>
