<svg width="400" height="700" viewBox="0 0 400 700" fill="none" xmlns="http://www.w3.org/2000/svg">
<g clip-path="url(#clip0_105_569)">
<rect width="400" height="700" rx="25" fill="white"/>
<g clip-path="url(#clip1_105_569)" filter="url(#filter0_d_105_569)">
<path d="M486.08 443.224C476.329 448.488 456.443 479.986 434.203 525.548C431.609 530.854 429.015 535.654 428.439 536.244L427.382 537.297L426.661 535.654C425.845 533.928 425.413 532.033 424.116 524.832C423.107 519.19 421.474 516.537 418.88 516.537C416.382 516.537 412.203 522.39 409.465 529.801C407.832 534.181 405.958 537.591 405.094 537.591C404.806 537.591 404.133 536.707 403.557 535.57C402.692 533.928 402.5 532.791 402.5 529.169C402.5 526.559 402.788 523.948 403.172 522.811C404.469 519.105 403.172 517.716 397.504 516.789C393.181 516.073 390.011 514.389 390.443 513.042C391.356 510.094 392.269 494.556 392.028 485.586C391.692 471.901 390.203 466.09 386.553 464.195C385.208 463.521 384.871 463.479 383.382 464.026C377.186 466.3 371.95 484.323 370.125 509.631C369.74 515.273 369.26 516.41 366.618 517.8C365.177 518.558 365.081 518.558 363.88 517.842C361.815 516.579 358.644 515.273 357.588 515.273C357.011 515.273 356.051 515.737 355.426 516.326C354.417 517.168 354.225 517.758 354.225 519.99C354.225 521.463 354.561 524.327 354.946 526.432C355.33 528.496 355.666 531.359 355.666 532.749C355.666 534.981 355.522 535.36 354.369 536.16L353.024 537.086L352.784 544.245C352.64 548.203 352.352 551.572 352.112 551.782C351.439 552.372 348.797 549.129 345.627 543.866C343.994 541.086 342.072 538.518 341.448 538.181C340.391 537.549 340.151 537.549 338.038 538.476C336.356 539.192 335.396 539.992 334.579 541.297L333.474 543.15L331.793 541.718C328.959 539.318 326.942 536.244 325.597 532.328C322.763 523.906 321.37 523.19 315.557 527.022C312.771 528.875 310.418 530.012 309.361 530.012C308.256 530.012 307.776 528.875 307.007 524.706C306.335 521.169 305.902 520.327 300.282 511.062C292.981 499.019 291.252 496.282 289.042 493.587C283.326 486.597 272.807 476.785 267.571 473.543C260.366 469.079 255.274 469.5 253.305 474.722C252.2 477.712 253.641 485.123 256.475 491.06C260.318 499.188 267.955 508.873 274.2 513.631C276.745 515.568 278.811 518.137 278.811 519.358C278.811 520.537 277.034 521.337 273.335 521.8C267.619 522.558 266.61 526.011 270.213 532.37C271.318 534.349 274.055 538.265 276.313 541.086C284.191 550.94 285.055 552.077 285.055 552.288C285.055 552.414 284.191 552.961 283.086 553.509C280.588 554.772 279.147 556.751 279.531 558.436C279.676 559.236 280.876 560.667 282.654 562.225C286.016 565.173 286.689 566.899 285.103 568.289C283.951 569.3 282.702 569.384 280.108 568.584C277.034 567.615 275.016 566.142 273.047 563.404C269.492 558.52 266.37 556.119 263.44 556.035C261.663 555.993 260.51 556.877 259.357 559.067C258.78 560.204 258.156 560.752 257.58 560.752C257.003 560.752 253.785 558.225 249.606 554.519C239.759 545.845 234.235 542.35 229.624 541.929C227.798 541.718 227.462 541.844 226.549 542.855C224.292 545.339 225.781 550.224 231.785 560.246C234.811 565.384 235.196 566.226 234.955 567.784C234.715 569.763 233.514 571.7 232.506 571.7C232.169 571.7 228.519 568.163 224.388 563.783C215.693 554.604 213.772 552.919 209.929 550.898C206.231 548.961 203.012 547.908 196.047 546.392C192.877 545.718 189.467 544.75 188.458 544.287C187.401 543.824 182.502 539.907 177.554 535.57C156.563 517.084 140.375 506.725 131.633 506.136C128.799 505.925 128.511 505.967 127.07 507.104C124.956 508.746 124.668 510.81 126.061 514.431C129.856 524.411 146.139 540.75 167.371 555.909C169.628 557.509 176.449 563.11 182.502 568.331C188.602 573.595 195.855 579.448 198.689 581.343C202.196 583.659 203.877 585.091 203.877 585.638C203.877 586.101 202.916 587.365 201.763 588.459C200.563 589.554 199.458 590.986 199.314 591.618C198.785 593.386 201.379 595.323 205.894 596.544C210.218 597.724 212.043 599.197 212.043 601.513C212.043 602.398 211.707 603.493 211.322 603.956C209.065 606.567 211.562 608.756 222.61 613.936C231.785 618.231 235.916 620.673 234.331 620.884C232.41 621.136 223.667 619.747 219.44 618.526C217.086 617.81 207.96 615.073 199.17 612.378C167.707 602.735 143.209 596.334 136.052 595.829C131.873 595.534 130.864 595.913 130.864 597.766C130.864 599.703 134.659 602.313 145.323 607.746C152.816 611.493 182.309 624.884 193.694 629.642C197.969 631.411 201.427 633.053 201.379 633.264C201.283 633.474 199.794 634.653 198.113 635.833C196.336 637.096 194.606 638.738 194.078 639.665L193.165 641.349L194.462 644.591C195.183 646.402 195.711 648.465 195.615 649.223C195.279 652.592 189.322 652.887 176.017 650.234C162.087 647.413 160.406 647.118 153.681 646.276C128.847 643.202 108.096 644.591 95.0306 650.234C86.0001 654.108 82.0132 659.372 84.2708 664.551C85.4717 667.33 89.6027 670.152 94.7904 671.71C102.092 673.942 104.445 674.026 138.79 673.563L151.759 673.394L160.31 675.205C170.301 677.31 174.288 677.816 179.86 677.731C186.2 677.605 188.698 679.332 188.698 683.921C188.698 686.911 187.497 688.638 184.759 689.648C177.122 692.428 171.55 696.26 169.388 700.218C168.043 702.786 168.043 704.008 169.436 705.439C170.301 706.282 171.117 706.618 172.943 706.745C175.392 706.955 176.353 706.703 187.497 703.292C191.628 702.028 193.55 701.692 198.449 701.397C201.715 701.186 205.558 701.144 206.999 701.271C209.545 701.523 209.641 701.565 208.873 702.281C207.432 703.671 200.37 706.366 191.484 708.934C177.458 713.019 171.886 715.756 172.27 718.493C172.558 720.851 176.449 721.399 182.838 719.967C184.855 719.504 187.641 718.62 189.082 717.946C191.628 716.767 191.676 716.767 199.746 716.893C208.728 717.019 210.266 717.314 207.72 718.451C204.838 719.757 200.226 721.146 190.091 723.673C164.825 730.031 151.904 734.916 146.572 740.095C144.266 742.327 143.93 743.675 145.083 745.57C149.118 752.181 174.192 750.412 192.253 742.243C194.846 741.106 200.37 738.074 204.597 735.463C214.349 729.568 219.584 726.705 226.213 723.715C231.833 721.188 236.348 719.757 237.933 720.009C238.942 720.136 238.942 720.136 237.789 722.241C236.492 724.641 232.65 729.189 227.702 734.032C222.707 738.916 222.13 739.674 222.13 741.232C222.13 744.559 225.156 745.401 236.3 745.064L244.466 744.812L242.785 745.57C241.824 746.033 237.933 747.17 234.139 748.138C220.881 751.465 215.693 753.402 212.763 756.139C211.995 756.897 208.776 759.002 205.654 760.855C202.532 762.666 199.554 764.561 199.025 765.024C197.825 766.077 197.825 767.761 199.025 768.351C200.13 768.856 203.301 768.856 206.183 768.393C208.104 768.056 208.2 768.098 207.912 768.94C207.432 770.161 205.606 772.646 204.549 773.446C204.021 773.825 202.388 774.751 200.851 775.467C189.082 781.278 175.056 794.795 173.807 801.491C173.519 803.007 173.663 803.386 174.816 804.354C175.873 805.323 176.353 805.449 177.842 805.239C180.484 804.902 184.471 802.965 190.86 798.88C196.624 795.259 199.554 792.816 199.554 791.764C199.554 790.879 202.388 787.721 203.156 787.721C204.213 787.721 204.069 788.1 202.148 790.921C199.025 795.385 199.506 798.248 203.397 798.248C206.135 798.248 209.545 795.764 219.728 786.458C228.423 778.499 228.615 778.373 228.903 779.594C229.575 782.626 231.209 782.626 234.619 779.594L237.069 777.404L236.781 778.878C236.589 779.678 233.995 784.858 230.968 790.416C227.942 795.932 224.916 802.08 224.292 804.06C220.737 814.713 223.475 823.893 229.527 821.661C231.737 820.861 234.235 817.829 237.261 812.355C240.047 807.218 242.785 803.849 246.916 800.354L249.606 798.038L249.366 799.975C249.174 801.028 248.069 804.228 246.868 807.049C245.667 809.913 244.466 813.576 244.226 815.261C243.938 816.903 243.169 821.83 242.449 826.251C240.719 836.863 240.575 847.348 242.112 849.622C242.641 850.422 243.65 851.348 244.37 851.643C250.711 854.338 262.911 835.389 270.405 811.302C272.278 805.112 272.855 803.723 273.479 803.723C274.152 803.723 275.833 807.555 276.457 810.629C277.178 814.292 278.619 815.892 281.597 816.229C284.383 816.566 287.601 815.429 288.85 813.703C289.331 812.945 290.003 811.218 290.339 809.829C290.627 808.439 291.828 803.975 292.981 799.933C294.134 795.89 295.191 791.721 295.383 790.669C295.911 787.679 296.68 785.195 297.064 785.195C298.073 785.195 300.426 792.564 301.723 799.933C302.972 807.007 302.924 825.577 301.675 832.357C300.811 837.115 300.811 837.242 301.723 841.2L302.684 845.2L301.579 849.748C297.016 868.234 298.793 880.993 306.191 882.93C314.357 885.078 322.042 872.108 322.042 856.233V852.106L323.483 853.538C326.605 856.696 329.583 856.444 331.553 852.906C332.658 850.969 333.474 847.516 334.483 840.189C335.348 833.873 337.749 830.925 340.103 833.368C341.4 834.673 341.976 837.452 341.544 840.695C340.679 847.516 340.679 849.032 341.448 851.685C342.409 855.012 342.409 856.696 341.4 862.423C340.728 866.381 340.679 867.813 341.16 872.15C342.265 882.299 345.627 887.52 351.103 887.52C354.994 887.52 359.989 883.057 362.343 877.414C365.273 870.382 364.793 863.055 360.998 856.401C359.125 853.201 359.125 852.57 360.854 852.57C362.151 852.612 364.409 853.496 368.78 855.686C370.365 856.486 371.422 856.78 372.238 856.612C374.448 856.107 374.592 855.138 373.199 848.485C371.566 840.653 371.566 833.789 373.295 832.315C374.64 831.094 376.033 831.431 378.867 833.62C382.566 836.484 383.526 838.758 384.007 846.085C384.295 849.538 384.919 854.17 385.448 856.359C386.36 860.233 386.841 864.781 387.849 879.73C388.426 888.026 388.906 890.047 391.98 897.205C398.513 912.533 406.007 921.46 413.452 922.934C416.958 923.608 419.504 922.934 422.434 920.534C427.286 916.576 429.736 910.301 429.784 901.838C429.784 892.995 427.526 886.847 421.522 879.562C416.19 873.119 411.338 863.602 408.937 854.886C408.456 853.033 408.024 850.885 408.024 850.127V848.78L411.771 848.738C413.788 848.738 416.238 848.527 417.151 848.232C419.552 847.516 419.552 846.085 417.247 840.947C413.212 832.062 410.041 821.619 411.098 820.693C412.299 819.64 419.312 825.493 427.526 834.463C432.426 839.768 434.827 841.621 438.382 842.716C443.954 844.442 447.701 842.337 447.508 837.663C447.364 834.884 445.971 831.852 441.36 824.314C435.019 813.913 430.744 805.618 431.177 804.481C431.273 804.228 432.906 805.533 434.827 807.344C441.984 814.292 450.679 824.483 456.347 832.568C460.526 838.589 462.015 840.147 464.465 841.2C466.674 842.126 466.722 842.126 471.766 840.316C473.687 839.642 474.216 839.979 476.761 843.769C478.923 846.969 486.657 854.633 490.932 857.875C496.744 862.255 501.307 864.276 504.189 863.771C511.346 862.507 508.704 851.854 498.713 841.705C497.272 840.274 496.888 839.558 496.888 838.21C496.888 836.357 496.984 836.315 500.731 837.2C504.285 838.042 506.639 838 507.984 837.073C510.434 835.305 508.608 831.725 502.028 825.409C499.962 823.43 498.377 821.83 498.521 821.83C498.665 821.83 500.923 822.546 503.469 823.472C510.097 825.788 517.062 827.683 520.041 827.978C522.202 828.188 522.779 828.104 523.931 827.304C527.246 825.03 524.748 822.124 507.696 808.565C494.054 797.701 481.517 786.289 481.517 784.689C481.517 784.058 483.871 784.605 493.093 787.342C497.753 788.69 502.124 789.827 502.796 789.827C503.901 789.827 505.534 788.521 505.534 787.637C505.534 787.468 504.333 786.121 502.892 784.605C500.491 782.163 499.29 780.352 499.29 779.257C499.29 778.415 502.172 778.962 505.822 780.52C510.097 782.331 514.757 784.9 523.835 790.542C533.058 796.269 538.726 798.627 550.398 801.617C561.062 804.312 569.372 805.239 573.839 804.144C574.8 803.891 576.145 803.133 576.818 802.417C579.748 799.385 577.634 794.543 570.861 788.563C560.822 779.678 545.355 771.551 526.814 765.361C516.918 762.076 511.779 758.96 511.779 756.223C511.779 754.581 513.364 754.286 520.185 754.707C523.595 754.876 528.831 755.044 531.761 755.086C537.861 755.086 539.158 754.581 539.158 752.223C539.158 749.486 531.905 745.612 520.185 742.032C509.905 738.916 506.543 737.064 508.656 735.674C510.386 734.537 512.98 734.158 521.386 733.863C530.608 733.568 532.962 733.021 534.307 730.831C534.931 729.863 534.883 729.568 534.067 728.136C532.77 725.778 528.735 723.546 519.416 720.051C510.097 716.598 505.39 714.156 506.639 713.524C508.128 712.808 515.285 712.64 522.106 713.145C530.368 713.777 531.473 713.988 542.521 716.851C569.804 723.883 598.481 728.852 621.778 730.663C642.241 732.263 653 730.621 653 725.862C653 718.493 620.817 706.197 554.77 688.343C530.176 681.69 521.338 678.995 522.058 678.363C522.202 678.237 525.661 678.363 529.744 678.658C538.294 679.289 542.137 678.868 544.826 677.142C547.42 675.373 546.748 672.341 543.337 670.825C540.551 669.52 538.918 669.31 530.272 668.973C521.434 668.636 517.447 667.962 515.862 666.572C515.141 665.941 515.141 665.857 515.862 665.225C516.486 664.677 518.023 664.551 525.372 664.467C530.176 664.425 535.172 664.172 536.516 663.92C544.01 662.446 545.499 658.487 540.167 654.108C537.189 651.666 534.931 650.655 530.944 650.066C524.892 649.181 519.032 649.813 510.049 652.339C503.709 654.108 501.836 654.234 501.403 652.803C500.875 650.908 501.403 649.097 502.7 648.213C504.573 646.992 507.263 646.697 516.102 646.655C528.735 646.613 536.661 645.56 548.525 642.402C558.276 639.749 561.35 637.18 558.132 634.359C556.835 633.222 555.058 632.548 548.717 630.906C538.438 628.211 541.08 626.568 557.652 625.389C581.189 623.705 597.184 620.842 607.944 616.378C614.669 613.599 618.319 609.935 617.791 606.524C617.599 605.135 617.071 604.419 615.389 603.029C611.402 599.871 603.813 598.608 594.014 599.45C588.01 599.955 577.586 602.019 574.944 603.156C574.176 603.535 569.997 605.893 565.673 608.419C556.499 613.851 551.84 615.915 548.909 615.915C546.46 615.915 546.268 615.662 545.211 611.072C543.866 605.261 541.848 602.861 538.486 602.861C537.813 602.861 533.634 604.293 529.215 606.061C521.049 609.304 513.22 611.872 512.739 611.409C512.595 611.283 515.669 608.504 519.56 605.219C523.451 601.977 526.958 598.65 527.39 597.892C527.822 597.092 528.11 595.744 528.014 594.776C527.822 592.334 526.093 591.281 522.442 591.323C520.089 591.323 518.84 591.702 513.7 593.934C510.434 595.365 507.311 596.544 506.831 596.544C505.39 596.544 508.32 593.344 514.901 587.786C522.01 581.722 525.565 579.364 531.569 576.711C542.761 571.784 557.123 563.91 565.145 558.309C581.669 546.771 587.433 535.907 578.883 532.538C571.149 529.422 555.538 535.696 539.639 548.287C536.661 550.645 533.058 552.751 532.049 552.751C530.944 552.751 528.11 549.761 527.582 548.034C527.342 547.15 526.621 545.929 525.997 545.297C524.892 544.203 524.844 544.16 521.674 544.582C519.656 544.834 518.504 544.876 518.504 544.624C518.504 544.371 520.425 542.434 522.779 540.328C525.997 537.423 527.582 535.57 528.975 533.086C531.425 528.833 534.595 525.548 540.215 521.379C542.665 519.569 547.805 515.358 551.647 512.115C557.46 507.146 559.957 505.378 566.394 501.672C575.953 496.114 578.018 494.598 582.63 489.587C591.324 480.112 595.599 472.617 594.686 468.448C594.542 467.648 593.726 466.469 592.957 465.795C589.018 462.468 579.171 465.121 566.97 472.743C560.294 476.912 554.77 481.67 548.141 488.955C540.696 497.082 536.613 501.125 533.73 503.146C532.434 504.03 531.233 504.746 531.089 504.746C530.896 504.746 530.752 503.146 530.752 501.167C530.752 497.84 530.656 497.545 529.407 496.45C528.303 495.482 527.678 495.271 525.805 495.314C519.8 495.398 511.058 502.43 501.451 514.852C495.591 522.39 494.006 523.569 492.373 521.506C491.268 520.158 491.46 519.105 493.093 516.958C494.39 515.316 494.534 514.81 494.246 513.168C493.67 509.631 491.652 508.325 488.626 509.42C485.071 510.683 478.539 517.8 467.923 531.949C463.696 537.549 460.958 540.707 458.941 542.392C455.818 544.876 452.936 546.434 451.255 546.434C450.439 546.434 450.294 546.182 450.294 544.708C450.294 542.518 452.504 536.749 455.242 531.612C456.443 529.464 459.565 523.611 462.303 518.642C485.744 475.396 496.6 445.877 490.163 442.845C488.866 442.214 487.713 442.34 486.08 443.224Z" fill="#F5353A"/>
<path d="M168.812 470.722C166.698 471.985 165.305 474.469 165.065 477.417C164.681 481.881 168.283 486.85 175.44 491.776C177.218 492.998 180.58 495.398 182.982 497.124C188.266 500.956 192.108 502.641 195.615 502.641C197.68 502.641 198.401 502.43 199.314 501.588C201.187 499.988 200.851 498.598 196.864 491.566C191.148 481.586 187.689 477.249 182.646 473.754C177.026 469.88 172.03 468.827 168.812 470.722Z" fill="#F5353A"/>
<path d="M48.6289 523.232C44.8341 524.327 42.4804 527.275 42.0961 531.57C41.6638 536.328 44.69 540.034 51.3668 542.981C60.3973 546.898 83.6461 552.793 94.2137 553.804C96.7595 554.056 97.5761 553.972 99.3534 553.172C102.187 551.993 102.572 550.94 100.746 549.298C98.3447 547.108 84.8469 537.086 79.2269 533.38C69.0916 526.685 60.7816 523.316 53.7686 523.022C51.655 522.937 49.3494 523.022 48.6289 523.232Z" fill="#F5353A"/>
</g>
<g clip-path="url(#clip2_105_569)" filter="url(#filter1_d_105_569)">
<path d="M-23.0795 315.789C-16.4245 310.37 -2.85237 277.937 12.3262 231.022C14.0965 225.559 15.8667 220.616 16.2601 220.009L16.9814 218.925L17.4731 220.616C18.0304 222.393 18.3255 224.345 19.2106 231.759C19.899 237.569 21.0137 240.301 22.784 240.301C24.4887 240.301 27.3408 234.274 29.2094 226.643C30.324 222.133 31.6026 218.621 32.1927 218.621C32.3894 218.621 32.8483 219.532 33.2417 220.702C33.8318 222.393 33.963 223.564 33.963 227.293C33.963 229.981 33.7663 232.67 33.504 233.84C32.6189 237.656 33.504 239.087 37.3724 240.041C40.3229 240.778 42.4865 242.512 42.1915 243.9C41.5686 246.935 40.9457 262.934 41.1097 272.17C41.3391 286.262 42.3554 292.245 44.8469 294.197C45.7649 294.89 45.9943 294.934 47.0106 294.37C51.2396 292.029 54.813 273.471 56.0587 247.412C56.321 241.602 56.6488 240.431 58.4519 239C59.4354 238.22 59.5009 238.22 60.3205 238.957C61.7302 240.257 63.8939 241.602 64.6151 241.602C65.0085 241.602 65.6641 241.125 66.0903 240.518C66.7788 239.65 66.9099 239.043 66.9099 236.745C66.9099 235.228 66.6804 232.279 66.4182 230.111C66.1559 227.987 65.9264 225.038 65.9264 223.607C65.9264 221.309 66.0248 220.919 66.8115 220.095L67.7295 219.141L67.8934 211.77C67.9917 207.695 68.1884 204.226 68.3524 204.009C68.8113 203.402 70.6144 206.741 72.7781 212.161C73.8927 215.022 75.204 217.667 75.6302 218.014C76.3514 218.664 76.5153 218.664 77.9578 217.711C79.1052 216.973 79.7608 216.15 80.3182 214.806L81.0722 212.898L82.2196 214.372C84.1538 216.843 85.5307 220.009 86.4486 224.041C88.3828 232.713 89.3335 233.45 93.3002 229.504C95.2016 227.597 96.808 226.426 97.5292 226.426C98.2832 226.426 98.6111 227.597 99.1356 231.889C99.5946 235.531 99.8896 236.398 103.725 245.938C108.708 258.338 109.888 261.157 111.396 263.932C115.298 271.129 122.477 281.232 126.05 284.571C130.968 289.167 134.443 288.733 135.787 283.357C136.541 280.278 135.558 272.647 133.623 266.533C131.001 258.165 125.788 248.192 121.526 243.293C119.789 241.298 118.379 238.653 118.379 237.396C118.379 236.182 119.592 235.358 122.117 234.881C126.018 234.1 126.706 230.545 124.247 223.998C123.493 221.96 121.625 217.927 120.084 215.022C114.708 204.876 114.117 203.705 114.117 203.489C114.117 203.359 114.708 202.795 115.462 202.231C117.166 200.93 118.15 198.893 117.887 197.158C117.789 196.334 116.97 194.86 115.757 193.256C113.462 190.221 113.003 188.443 114.085 187.012C114.871 185.972 115.724 185.885 117.494 186.709C119.592 187.706 120.969 189.223 122.313 192.042C124.739 197.072 126.87 199.543 128.87 199.63C130.083 199.673 130.87 198.763 131.656 196.508C132.05 195.337 132.476 194.773 132.869 194.773C133.263 194.773 135.459 197.375 138.311 201.191C145.032 210.123 148.802 213.722 151.949 214.155C153.195 214.372 153.424 214.242 154.047 213.201C155.588 210.643 154.572 205.613 150.474 195.294C148.408 190.004 148.146 189.137 148.31 187.532C148.474 185.495 149.294 183.5 149.982 183.5C150.212 183.5 152.703 187.142 155.522 191.652C161.456 201.104 162.767 202.838 165.39 204.92C167.914 206.914 170.111 207.998 174.864 209.559C177.028 210.253 179.356 211.25 180.044 211.727C180.765 212.204 184.109 216.236 187.486 220.702C201.812 239.737 212.86 250.404 218.826 251.011C220.761 251.227 220.957 251.184 221.941 250.013C223.383 248.322 223.58 246.198 222.629 242.469C220.039 232.193 208.926 215.369 194.436 199.76C192.895 198.112 188.24 192.345 184.109 186.969C179.946 181.549 174.996 175.522 173.061 173.571C170.668 171.186 169.521 169.712 169.521 169.148C169.521 168.671 170.176 167.37 170.963 166.243C171.783 165.116 172.537 163.641 172.635 162.991C172.996 161.17 171.225 159.175 168.144 157.918C165.193 156.704 163.948 155.186 163.948 152.802C163.948 151.891 164.177 150.764 164.439 150.287C165.98 147.598 164.275 145.344 156.735 140.011C150.474 135.588 147.654 133.073 148.736 132.856C150.048 132.596 156.014 134.027 158.899 135.284C160.505 136.022 166.734 138.84 172.733 141.615C194.206 151.544 210.926 158.135 215.81 158.655C218.663 158.959 219.351 158.568 219.351 156.661C219.351 154.666 216.761 151.978 209.483 146.384C204.369 142.525 184.24 128.737 176.471 123.838C173.553 122.016 171.193 120.325 171.225 120.109C171.291 119.892 172.307 118.678 173.455 117.464C174.668 116.163 175.848 114.472 176.208 113.518L176.831 111.784L175.946 108.445C175.454 106.58 175.094 104.456 175.159 103.675C175.389 100.207 179.454 99.9031 188.535 102.635C198.042 105.54 199.189 105.843 203.779 106.711C220.728 109.876 234.89 108.445 243.807 102.635C249.97 98.6457 252.691 93.2258 251.15 87.8926C250.331 85.0309 247.512 82.1258 243.971 80.5215C238.988 78.2235 237.382 78.1367 213.942 78.6137L205.09 78.7871L199.255 76.9227C192.436 74.7547 189.715 74.2344 185.912 74.3211C181.585 74.4512 179.88 72.6735 179.88 67.9473C179.88 64.8688 180.7 63.091 182.568 62.0504C187.781 59.1887 191.584 55.243 193.059 51.1672C193.977 48.5223 193.977 47.2649 193.026 45.7906C192.436 44.9234 191.879 44.5766 190.633 44.4465C188.961 44.2297 188.305 44.4899 180.7 48.002C177.88 49.3027 176.569 49.6496 173.225 49.9531C170.996 50.1699 168.373 50.2133 167.39 50.0832C165.652 49.8231 165.587 49.7797 166.111 49.0426C167.095 47.6117 171.914 44.8367 177.979 42.1918C187.551 37.9859 191.354 35.1676 191.092 32.3492C190.895 29.9211 188.24 29.3574 183.88 30.8317C182.503 31.3086 180.601 32.2192 179.618 32.9129C177.88 34.127 177.848 34.127 172.34 33.9969C166.21 33.8668 165.161 33.5633 166.898 32.3926C168.865 31.0484 172.012 29.6176 178.929 27.016C196.173 20.4688 204.992 15.4391 208.631 10.1059C210.204 7.80782 210.434 6.42032 209.647 4.46915C206.893 -2.33827 189.781 -0.517181 177.454 7.89454C175.684 9.06524 171.914 12.1871 169.029 14.8754C162.374 20.9457 158.801 23.8942 154.277 26.9727C150.441 29.5742 147.359 31.0484 146.278 30.7883C145.589 30.6582 145.589 30.6582 146.376 28.4902C147.261 26.0188 149.884 21.3359 153.26 16.3496C156.67 11.3199 157.063 10.5395 157.063 8.93516C157.063 5.50977 154.998 4.64259 147.392 4.98946L141.819 5.24962L142.967 4.46915C143.622 3.99219 146.278 2.82149 148.867 1.82423C157.916 -1.60117 161.456 -3.5957 163.456 -6.41406C163.98 -7.19453 166.177 -9.36249 168.308 -11.2703C170.439 -13.1348 172.471 -15.0859 172.832 -15.5629C173.651 -16.6469 173.651 -18.3812 172.832 -18.9883C172.078 -19.5086 169.914 -19.5086 167.947 -19.0316C166.636 -18.6848 166.57 -18.7281 166.767 -19.5953C167.095 -20.8527 168.341 -23.4109 169.062 -24.2348C169.422 -24.625 170.537 -25.5789 171.586 -26.316C179.618 -32.2996 189.191 -46.218 190.043 -53.1121C190.24 -54.673 190.141 -55.0633 189.354 -56.0605C188.633 -57.0578 188.305 -57.1879 187.289 -56.9711C185.486 -56.6242 182.765 -54.6297 178.405 -50.4238C174.471 -46.6949 172.471 -44.1801 172.471 -43.0961C172.471 -42.1855 170.537 -38.9336 170.012 -38.9336C169.291 -38.9336 169.39 -39.3238 170.701 -42.2289C172.832 -46.825 172.504 -49.7734 169.849 -49.7734C167.98 -49.7734 165.652 -47.2152 158.702 -37.6328C152.769 -29.4379 152.637 -29.3078 152.441 -30.5652C151.982 -33.6871 150.867 -33.6871 148.54 -30.5652L146.868 -28.3105L147.064 -29.8281C147.196 -30.652 148.966 -35.9852 151.031 -41.7086C153.096 -47.3887 155.162 -53.7191 155.588 -55.757C158.014 -66.727 156.145 -76.1793 152.015 -73.8813C150.507 -73.0574 148.802 -69.9355 146.737 -64.2988C144.835 -59.009 142.967 -55.5402 140.147 -51.9414L138.311 -49.5566L138.475 -51.5512C138.606 -52.6352 139.36 -55.9305 140.18 -58.8355C141 -61.784 141.819 -65.5563 141.983 -67.2906C142.18 -68.9816 142.704 -74.0547 143.196 -78.6074C144.376 -89.534 144.475 -100.33 143.425 -102.672C143.065 -103.496 142.376 -104.45 141.885 -104.753C137.557 -107.528 129.23 -88.0164 124.116 -63.2148C122.838 -56.841 122.444 -55.4102 122.018 -55.4102C121.559 -55.4102 120.412 -59.3559 119.986 -62.5211C119.494 -66.2934 118.51 -67.941 116.478 -68.2879C114.576 -68.6348 112.38 -67.4641 111.528 -65.6863C111.2 -64.9059 110.741 -63.1281 110.511 -61.6973C110.315 -60.2664 109.495 -55.6703 108.708 -51.5078C107.921 -47.3453 107.2 -43.0527 107.069 -41.9687C106.708 -38.8902 106.184 -36.332 105.922 -36.332C105.233 -36.332 103.627 -43.9199 102.742 -51.5078C101.889 -58.7922 101.922 -77.9137 102.775 -84.8945C103.365 -89.7941 103.365 -89.9242 102.742 -94L102.086 -98.1191L102.84 -102.802C105.954 -121.837 104.742 -134.975 99.6929 -136.969C94.1198 -139.18 88.8745 -125.826 88.8745 -109.479V-105.23L87.891 -106.704C85.7601 -109.956 83.7276 -109.696 82.3835 -106.054C81.6295 -104.059 81.0722 -100.504 80.3837 -92.9594C79.7936 -86.4555 78.1545 -83.4203 76.5481 -85.9352C75.663 -87.2793 75.2696 -90.141 75.5646 -93.4797C76.1547 -100.504 76.1547 -102.065 75.6302 -104.796C74.9745 -108.222 74.9745 -109.956 75.663 -115.853C76.1219 -119.929 76.1547 -121.403 75.8269 -125.869C75.0729 -136.319 72.7781 -141.695 69.0408 -141.695C66.3854 -141.695 62.9759 -137.099 61.3696 -131.289C59.3698 -124.048 59.6976 -116.504 62.2875 -109.653C63.566 -106.357 63.566 -105.707 62.3858 -105.707C61.5007 -105.75 59.9599 -106.661 56.9766 -108.916C55.8948 -109.739 55.1736 -110.043 54.6163 -109.87C53.1082 -109.349 53.0099 -108.352 53.9606 -101.501C55.0752 -93.4363 55.0752 -86.3688 53.895 -84.8512C52.9771 -83.5938 52.0264 -83.9406 50.0922 -86.1953C47.5679 -89.1438 46.9123 -91.4852 46.5844 -99.0297C46.3877 -102.585 45.9615 -107.355 45.6009 -109.609C44.9781 -113.598 44.6502 -118.281 43.9618 -133.674C43.5684 -142.216 43.2406 -144.297 41.1424 -151.668C36.684 -167.451 31.5698 -176.643 26.4884 -178.161C24.0953 -178.854 22.3578 -178.161 20.358 -175.689C17.0469 -171.613 15.375 -165.153 15.3422 -156.438C15.3422 -147.332 16.883 -141.002 20.9809 -133.5C24.6198 -126.866 27.9309 -117.067 29.57 -108.092C29.8979 -106.184 30.1929 -103.973 30.1929 -103.192V-101.805L27.6358 -101.761C26.259 -101.761 24.587 -101.545 23.9641 -101.241C22.325 -100.504 22.325 -99.0297 23.8986 -93.7398C26.6523 -84.591 28.816 -73.8379 28.0948 -72.884C27.2752 -71.8 22.4889 -77.827 16.883 -87.0625C13.5391 -92.5258 11.9 -94.4336 9.47405 -95.5609C5.67122 -97.3387 3.11414 -95.1707 3.24527 -90.3578C3.34362 -87.4961 4.29433 -84.3742 7.4415 -76.6129C11.7689 -65.9031 14.6865 -57.3613 14.3915 -56.1906C14.3259 -55.9305 13.2113 -57.2746 11.9 -59.1391C7.01532 -66.2934 1.08159 -76.7863 -2.7868 -85.1113C-5.63893 -91.3117 -6.6552 -92.916 -8.32713 -94C-9.83515 -94.9539 -9.86794 -94.9539 -13.3102 -93.0895C-14.6215 -92.3957 -14.9821 -92.7426 -16.7196 -96.6449C-18.1948 -99.9402 -23.4729 -107.832 -26.3906 -111.17C-30.3573 -115.68 -33.4717 -117.761 -35.4387 -117.241C-40.3233 -115.94 -38.5203 -104.97 -31.7014 -94.5203C-30.7179 -93.0461 -30.4557 -92.309 -30.4557 -90.9215C-30.4557 -89.0137 -30.5212 -88.9703 -33.0783 -89.8809C-35.5042 -90.748 -37.1106 -90.7047 -38.0285 -89.7508C-39.7005 -87.9297 -38.4547 -84.2441 -33.9634 -77.7402C-32.5538 -75.7023 -31.4719 -74.0547 -31.5703 -74.0547C-31.6686 -74.0547 -33.2094 -74.7918 -34.9469 -75.7457C-39.471 -78.1305 -44.2245 -80.0816 -46.2571 -80.3852C-47.7323 -80.602 -48.1257 -80.5152 -48.9125 -79.6914C-51.1745 -77.35 -49.4698 -74.3582 -37.8318 -60.3965C-28.5215 -49.2098 -19.9651 -37.4594 -19.9651 -35.8117C-19.9651 -35.1613 -21.5715 -35.725 -27.8658 -38.5434C-31.0458 -39.9309 -34.029 -41.1016 -34.488 -41.1016C-35.242 -41.1016 -36.3566 -39.7574 -36.3566 -38.8469C-36.3566 -38.6734 -35.537 -37.2859 -34.5535 -35.725C-32.9144 -33.2102 -32.0948 -31.3457 -32.0948 -30.2184C-32.0948 -29.3512 -34.0618 -29.9148 -36.5533 -31.5191C-39.471 -33.3836 -42.6509 -36.0285 -48.8469 -41.8387C-55.1413 -47.7355 -59.0097 -50.1637 -66.9759 -53.2422C-74.2538 -56.0172 -79.9252 -56.9711 -82.9741 -55.8438C-83.6297 -55.5836 -84.5476 -54.8031 -85.0066 -54.066C-87.0064 -50.9441 -85.5639 -45.9578 -80.9415 -39.8008C-74.0899 -30.652 -63.5337 -22.2836 -50.8795 -15.9098C-44.1262 -12.5277 -40.6184 -9.31914 -40.6184 -6.50078C-40.6184 -4.80976 -41.7002 -4.50624 -46.3554 -4.93984C-48.683 -5.11328 -52.2564 -5.28671 -54.2561 -5.33007C-58.4196 -5.33007 -59.3047 -4.80976 -59.3047 -2.38163C-59.3047 0.436725 -54.3545 4.42579 -46.3554 8.11134C-39.3399 11.3199 -37.045 13.2277 -38.4875 14.6586C-39.6677 15.8293 -41.438 16.2195 -47.175 16.5231C-53.4693 16.8266 -55.0757 17.3902 -55.9936 19.6449C-56.4198 20.6422 -56.387 20.9457 -55.8297 22.4199C-54.9446 24.8481 -52.1908 27.1461 -45.8309 30.7449C-39.471 34.3004 -36.2583 36.8152 -37.1106 37.4656C-38.1269 38.2027 -43.0116 38.3762 -47.6667 37.8559C-53.3054 37.2055 -54.0594 36.9887 -61.5995 34.0402C-80.2203 26.7992 -99.7917 21.6828 -115.692 19.8184C-129.657 18.1707 -137 19.8617 -137 24.7613C-137 32.3492 -115.036 45.0102 -69.9592 63.3945C-53.1743 70.2453 -47.1422 73.0203 -47.634 73.6707C-47.7323 73.8008 -50.0927 73.6707 -52.8792 73.3672C-58.7146 72.7168 -61.3373 73.1504 -63.1731 74.9281C-64.9434 76.7492 -64.4844 79.8711 -62.1568 81.432C-60.2554 82.7762 -59.1408 82.993 -53.2399 83.3399C-47.2078 83.6867 -44.4868 84.3805 -43.4049 85.8113C-42.9132 86.4617 -42.9132 86.5485 -43.4049 87.1988C-43.8311 87.7625 -44.8802 87.8926 -49.896 87.9793C-53.1743 88.0227 -56.5837 88.2828 -57.5016 88.543C-62.6158 90.0606 -63.6321 94.1363 -59.9932 98.6457C-57.9606 101.161 -56.4198 102.201 -53.6988 102.808C-49.5682 103.719 -45.5686 103.068 -39.4382 100.467C-35.1108 98.6457 -33.8323 98.5156 -33.5373 99.9899C-33.1766 101.941 -33.5373 103.805 -34.4224 104.716C-35.7009 105.973 -37.5368 106.277 -43.5689 106.32C-52.1908 106.364 -57.6 107.448 -65.6974 110.7C-72.3524 113.431 -74.4505 116.076 -72.254 118.981C-71.3689 120.152 -70.1559 120.846 -65.8285 122.537C-58.813 125.312 -60.616 127.003 -71.9262 128.217C-87.9899 129.951 -98.9066 132.9 -106.25 137.496C-110.84 140.357 -113.331 144.13 -112.971 147.642C-112.839 149.073 -112.479 149.81 -111.331 151.241C-108.61 154.493 -103.431 155.793 -96.7429 154.926C-92.645 154.406 -85.5311 152.281 -83.7281 151.111C-83.2035 150.72 -80.3514 148.292 -77.4009 145.691C-71.1394 140.097 -67.9594 137.973 -65.9597 137.973C-64.2877 137.973 -64.1566 138.233 -63.4354 142.959C-62.5174 148.943 -61.1406 151.414 -58.8458 151.414C-58.3868 151.414 -55.5347 149.94 -52.5186 148.119C-46.9455 144.78 -41.6019 142.135 -41.2741 142.612C-41.1757 142.742 -43.2738 145.604 -45.9292 148.986C-48.5847 152.325 -50.9778 155.75 -51.2729 156.53C-51.5679 157.354 -51.7646 158.742 -51.6991 159.739C-51.5679 162.254 -50.3877 163.338 -47.8962 163.295C-46.2899 163.295 -45.4375 162.904 -41.9297 160.606C-39.7005 159.132 -37.5696 157.918 -37.2417 157.918C-36.2583 157.918 -38.258 161.213 -42.7493 166.937C-47.6012 173.18 -50.0271 175.609 -54.125 178.34C-61.7634 183.413 -71.5656 191.522 -77.0403 197.288C-88.3177 209.169 -92.2516 220.356 -86.4163 223.824C-81.1382 227.033 -70.4837 220.572 -59.6325 207.608C-57.6 205.18 -55.1413 203.012 -54.4528 203.012C-53.6988 203.012 -51.7646 206.09 -51.404 207.868C-51.2401 208.779 -50.7483 210.036 -50.3222 210.686C-49.5682 211.814 -49.5354 211.857 -47.3717 211.423C-45.9948 211.163 -45.208 211.12 -45.208 211.38C-45.208 211.64 -46.5193 213.635 -48.1257 215.803C-50.3222 218.795 -51.404 220.702 -52.3547 223.261C-54.0266 227.64 -56.1903 231.022 -60.0259 235.314C-61.6979 237.179 -65.2057 241.515 -67.8283 244.854C-71.795 249.97 -73.4998 251.791 -77.8927 255.607C-84.4165 261.33 -85.8262 262.891 -88.9733 268.051C-94.9071 277.807 -97.8248 285.525 -97.2019 289.817C-97.1035 290.641 -96.5462 291.855 -96.0217 292.549C-93.3335 295.974 -86.613 293.243 -78.2861 285.395C-73.7292 281.102 -69.9592 276.202 -65.4351 268.701C-60.3538 260.333 -57.5672 256.17 -55.6002 254.089C-54.7151 253.179 -53.8955 252.441 -53.7972 252.441C-53.666 252.441 -53.5677 254.089 -53.5677 256.127C-53.5677 259.552 -53.5021 259.856 -52.6498 260.983C-51.8958 261.981 -51.4696 262.197 -50.191 262.154C-46.0932 262.067 -40.1266 254.826 -33.57 242.035C-29.5705 234.274 -28.4887 233.06 -27.3741 235.184C-26.62 236.572 -26.7512 237.656 -27.8658 239.867C-28.7509 241.558 -28.8493 242.079 -28.6526 243.77C-28.2592 247.412 -26.8823 248.756 -24.817 247.629C-22.391 246.328 -17.9326 239 -10.6875 224.431C-7.8026 218.664 -5.93397 215.413 -4.55709 213.678C-2.42619 211.12 -0.459208 209.516 0.688197 209.516C1.24551 209.516 1.34386 209.776 1.34386 211.293C1.34386 213.548 -0.164161 219.488 -2.03279 224.778C-2.85237 226.989 -4.98327 233.016 -6.8519 238.133C-22.85 282.663 -30.259 313.058 -25.866 316.18C-24.9809 316.83 -24.1941 316.7 -23.0795 315.789Z" fill="#5BE545"/>
<path d="M193.452 287.476C194.895 286.175 195.845 283.617 196.009 280.582C196.272 275.986 193.813 270.869 188.928 265.796C187.715 264.539 185.42 262.067 183.781 260.289C180.175 256.344 177.552 254.609 175.159 254.609C173.75 254.609 173.258 254.826 172.635 255.693C171.356 257.341 171.586 258.772 174.307 266.013C178.208 276.289 180.569 280.755 184.011 284.354C187.846 288.343 191.256 289.427 193.452 287.476Z" fill="#5BE545"/>
<path d="M275.476 233.407C278.066 232.279 279.672 229.244 279.934 224.822C280.229 219.922 278.164 216.106 273.607 213.071C267.444 209.039 251.577 202.968 244.365 201.928C242.627 201.668 242.07 201.754 240.857 202.578C238.923 203.792 238.66 204.876 239.906 206.567C241.545 208.822 250.757 219.141 254.593 222.957C261.51 229.851 267.182 233.32 271.968 233.623C273.41 233.71 274.984 233.623 275.476 233.407Z" fill="#5BE545"/>
</g>
<g clip-path="url(#clip3_105_569)" filter="url(#filter2_d_105_569)">
<path d="M414.698 306.625C407.436 301.654 392.627 271.91 376.066 228.883C374.134 223.873 372.202 219.339 371.773 218.783L370.986 217.789L370.45 219.339C369.842 220.97 369.52 222.759 368.554 229.559C367.803 234.888 366.586 237.393 364.655 237.393C362.795 237.393 359.683 231.866 357.644 224.867C356.428 220.731 355.033 217.51 354.389 217.51C354.174 217.51 353.673 218.345 353.244 219.419C352.6 220.97 352.457 222.043 352.457 225.463C352.457 227.929 352.672 230.394 352.958 231.468C353.924 234.967 352.958 236.28 348.737 237.154C345.518 237.83 343.157 239.421 343.479 240.694C344.158 243.477 344.838 258.151 344.659 266.621C344.409 279.545 343.3 285.032 340.581 286.822C339.58 287.458 339.329 287.498 338.22 286.981C333.606 284.833 329.707 267.814 328.348 243.915C328.062 238.586 327.704 237.512 325.737 236.2C324.663 235.484 324.592 235.484 323.698 236.16C322.16 237.353 319.799 238.586 319.012 238.586C318.582 238.586 317.867 238.149 317.402 237.592C316.651 236.796 316.508 236.24 316.508 234.132C316.508 232.74 316.758 230.036 317.044 228.048C317.331 226.1 317.581 223.395 317.581 222.083C317.581 219.976 317.474 219.618 316.615 218.862L315.614 217.987L315.435 211.227C315.327 207.489 315.113 204.308 314.934 204.109C314.433 203.552 312.466 206.614 310.105 211.585C308.889 214.21 307.458 216.635 306.993 216.953C306.206 217.55 306.027 217.55 304.453 216.675C303.201 215.999 302.486 215.244 301.878 214.011L301.055 212.261L299.803 213.613C297.693 215.88 296.19 218.783 295.189 222.481C293.078 230.434 292.041 231.11 287.713 227.491C285.638 225.742 283.885 224.668 283.098 224.668C282.275 224.668 281.918 225.742 281.345 229.678C280.845 233.019 280.523 233.814 276.338 242.562C270.9 253.935 269.613 256.52 267.967 259.065C263.711 265.666 255.877 274.932 251.978 277.994C246.612 282.209 242.821 281.811 241.354 276.88C240.531 274.057 241.604 267.058 243.715 261.451C246.577 253.776 252.264 244.63 256.914 240.137C258.81 238.308 260.348 235.882 260.348 234.729C260.348 233.615 259.025 232.86 256.27 232.422C252.014 231.706 251.262 228.446 253.945 222.441C254.768 220.572 256.807 216.874 258.488 214.21C264.354 204.904 264.998 203.831 264.998 203.632C264.998 203.513 264.354 202.996 263.532 202.479C261.672 201.286 260.599 199.417 260.885 197.826C260.992 197.071 261.886 195.719 263.21 194.247C265.714 191.464 266.215 189.833 265.034 188.521C264.176 187.567 263.246 187.487 261.314 188.243C259.025 189.157 257.522 190.549 256.056 193.134C253.409 197.747 251.084 200.013 248.902 200.093C247.578 200.133 246.72 199.297 245.861 197.23C245.432 196.156 244.967 195.639 244.538 195.639C244.108 195.639 241.712 198.025 238.6 201.524C231.267 209.716 227.153 213.017 223.719 213.414C222.36 213.613 222.11 213.494 221.43 212.539C219.749 210.193 220.858 205.58 225.329 196.116C227.582 191.265 227.869 190.47 227.69 188.998C227.511 187.129 226.617 185.3 225.865 185.3C225.615 185.3 222.897 188.64 219.82 192.776C213.346 201.445 211.915 203.035 209.053 204.944C206.299 206.773 203.902 207.768 198.716 209.199C196.355 209.835 193.815 210.75 193.064 211.187C192.277 211.625 188.628 215.323 184.944 219.419C169.312 236.876 157.258 246.658 150.748 247.215C148.637 247.414 148.422 247.374 147.349 246.3C145.775 244.75 145.561 242.801 146.598 239.381C149.424 229.957 161.55 214.528 177.361 200.212C179.042 198.701 184.121 193.412 188.628 188.481C193.171 183.511 198.573 177.983 200.683 176.194C203.294 174.007 204.546 172.655 204.546 172.138C204.546 171.7 203.831 170.507 202.972 169.473C202.078 168.439 201.255 167.087 201.148 166.491C200.755 164.821 202.686 162.991 206.049 161.838C209.268 160.725 210.627 159.333 210.627 157.146C210.627 156.311 210.377 155.277 210.091 154.84C208.41 152.374 210.27 150.306 218.497 145.415C225.329 141.359 228.405 139.053 227.225 138.854C225.794 138.615 219.284 139.927 216.136 141.081C214.383 141.757 207.587 144.341 201.041 146.886C177.611 155.993 159.368 162.037 154.038 162.514C150.926 162.793 150.175 162.435 150.175 160.685C150.175 158.856 153.001 156.39 160.942 151.261C166.522 147.721 188.485 135.076 196.963 130.582C200.147 128.912 202.722 127.361 202.686 127.163C202.615 126.964 201.506 125.85 200.254 124.737C198.93 123.544 197.643 121.993 197.249 121.118L196.569 119.528L197.535 116.466C198.072 114.756 198.465 112.807 198.394 112.091C198.143 108.91 193.708 108.632 183.799 111.137C173.426 113.801 172.174 114.08 167.166 114.875C148.673 117.778 133.22 116.466 123.49 111.137C116.766 107.479 113.797 102.508 115.478 97.6168C116.372 94.9922 119.448 92.3279 123.312 90.8566C128.749 88.749 130.501 88.6695 156.077 89.1069L165.735 89.266L172.103 87.5561C179.543 85.5678 182.512 85.0906 186.661 85.1701C191.383 85.2894 193.243 83.659 193.243 79.3246C193.243 76.5012 192.349 74.8708 190.31 73.9165C184.622 71.2919 180.473 67.6733 178.863 63.9353C177.862 61.5096 177.862 60.3564 178.899 59.0043C179.543 58.209 180.151 57.8909 181.51 57.7716C183.334 57.5728 184.05 57.8114 192.349 61.0324C195.425 62.2254 196.856 62.5435 200.504 62.8218C202.937 63.0207 205.798 63.0604 206.871 62.9411C208.767 62.7025 208.839 62.6628 208.266 61.9868C207.193 60.6745 201.935 58.1295 195.318 55.7038C184.873 51.8465 180.723 49.2618 181.009 46.677C181.224 44.4501 184.121 43.9332 188.879 45.2852C190.381 45.7226 192.456 46.5577 193.529 47.194C195.425 48.3074 195.461 48.3074 201.47 48.1881C208.159 48.0688 209.304 47.7904 207.408 46.7168C205.262 45.484 201.828 44.1718 194.28 41.7858C175.465 35.7812 165.843 31.1684 161.872 26.2772C160.155 24.1697 159.905 22.8972 160.763 21.1077C163.768 14.8645 182.44 16.5347 195.89 24.2492C197.821 25.3229 201.935 28.186 205.083 30.6514C212.344 36.2186 216.243 38.9227 221.18 41.7461C225.365 44.132 228.727 45.484 229.908 45.2454C230.659 45.1261 230.659 45.1261 229.8 43.1379C228.834 40.8712 225.973 36.5765 222.288 32.0035C218.568 27.3907 218.139 26.6749 218.139 25.2036C218.139 22.0621 220.393 21.2668 228.691 21.5849L234.772 21.8235L233.52 21.1077C232.805 20.6703 229.908 19.5966 227.082 18.682C217.209 15.5405 213.346 13.7113 211.164 11.1265C210.592 10.4107 208.195 8.42246 205.87 6.67277C203.545 4.96285 201.327 3.1734 200.933 2.73598C200.039 1.74184 200.039 0.151212 200.933 -0.405507C201.756 -0.882695 204.117 -0.882695 206.263 -0.445273C207.694 -0.127148 207.766 -0.166913 207.551 -0.962226C207.193 -2.11543 205.834 -4.4616 205.047 -5.21715C204.654 -5.57504 203.437 -6.44988 202.293 -7.1259C193.529 -12.6136 183.084 -25.3783 182.154 -31.7011C181.939 -33.1326 182.047 -33.4905 182.905 -34.4051C183.692 -35.3197 184.05 -35.439 185.159 -35.2402C187.126 -34.9221 190.095 -33.0929 194.853 -29.2356C199.145 -25.8157 201.327 -23.5093 201.327 -22.5152C201.327 -21.6801 203.437 -18.6977 204.01 -18.6977C204.797 -18.6977 204.689 -19.0556 203.259 -21.7199C200.933 -25.935 201.291 -28.6391 204.189 -28.6391C206.228 -28.6391 208.767 -26.2929 216.351 -17.5047C222.825 -9.98902 222.968 -9.86973 223.183 -11.0229C223.683 -13.8861 224.9 -13.8861 227.439 -11.0229L229.264 -8.95512L229.049 -10.3469C228.906 -11.1025 226.974 -15.9936 224.721 -21.2427C222.467 -26.452 220.214 -32.2578 219.749 -34.1268C217.102 -44.1875 219.141 -52.8564 223.648 -50.7488C225.293 -49.9932 227.153 -47.1301 229.407 -41.9606C231.481 -37.1092 233.52 -33.9279 236.597 -30.6274L238.6 -28.4403L238.421 -30.2695C238.278 -31.2636 237.455 -34.2858 236.561 -36.9501C235.667 -39.6542 234.772 -43.1138 234.593 -44.7044C234.379 -46.2553 233.807 -50.9079 233.27 -55.0832C231.982 -65.1042 231.875 -75.0058 233.02 -77.1532C233.413 -77.9087 234.164 -78.7836 234.701 -79.0619C239.422 -81.6069 248.508 -63.7124 254.088 -40.9664C255.483 -35.1209 255.913 -33.8086 256.378 -33.8086C256.878 -33.8086 258.13 -37.4273 258.595 -40.3302C259.132 -43.7898 260.205 -45.3009 262.423 -45.619C264.498 -45.9372 266.894 -44.8635 267.824 -43.2331C268.182 -42.5173 268.683 -40.8869 268.933 -39.5747C269.148 -38.2624 270.042 -34.0472 270.9 -30.2297C271.759 -26.4122 272.546 -22.4754 272.689 -21.4813C273.082 -18.6579 273.655 -16.3118 273.941 -16.3118C274.692 -16.3118 276.445 -23.2707 277.411 -30.2297C278.341 -36.9104 278.305 -54.447 277.375 -60.8493C276.731 -65.3428 276.731 -65.4621 277.411 -69.2L278.126 -72.9778L277.303 -77.2725C273.905 -94.7296 275.229 -106.779 280.737 -108.608C286.818 -110.636 292.542 -98.388 292.542 -83.3964V-79.4993L293.615 -80.8514C295.94 -83.8338 298.158 -83.5952 299.624 -80.2549C300.447 -78.4257 301.055 -75.1649 301.806 -68.2457C302.45 -62.2808 304.239 -59.4972 305.991 -61.8036C306.957 -63.0364 307.386 -65.6609 307.064 -68.7229C306.421 -75.1649 306.421 -76.5964 306.993 -79.1017C307.708 -82.2432 307.708 -83.8338 306.957 -89.2419C306.456 -92.9799 306.421 -94.3319 306.778 -98.4278C307.601 -108.011 310.105 -112.942 314.183 -112.942C317.08 -112.942 320.8 -108.727 322.553 -103.398C324.735 -96.7576 324.377 -89.8384 321.551 -83.5554C320.156 -80.5332 320.156 -79.9368 321.444 -79.9368C322.41 -79.9765 324.091 -80.8116 327.346 -82.8794C328.527 -83.635 329.314 -83.9133 329.922 -83.7543C331.567 -83.2771 331.674 -82.3625 330.637 -76.0795C329.421 -68.6831 329.421 -62.2013 330.709 -60.8095C331.71 -59.6563 332.748 -59.9744 334.858 -62.0422C337.612 -64.7463 338.328 -66.8936 338.685 -73.8129C338.9 -77.0736 339.365 -81.4479 339.759 -83.5157C340.438 -87.1741 340.796 -91.4688 341.547 -105.586C341.976 -113.419 342.334 -115.328 344.623 -122.088C349.488 -136.563 355.068 -144.993 360.613 -146.385C363.224 -147.021 365.12 -146.385 367.302 -144.118C370.915 -140.381 372.739 -134.455 372.775 -126.463C372.775 -118.112 371.093 -112.306 366.622 -105.427C362.652 -99.3424 359.039 -90.3554 357.25 -82.1239C356.893 -80.3742 356.571 -78.3461 356.571 -77.6304V-76.3579L359.361 -76.3181C360.863 -76.3181 362.687 -76.1193 363.367 -75.8409C365.156 -75.1649 365.156 -73.8129 363.439 -68.9614C360.434 -60.5709 358.073 -50.709 358.86 -49.8342C359.754 -48.84 364.977 -54.3675 371.093 -62.8375C374.742 -67.848 376.531 -69.5977 379.178 -70.6316C383.327 -72.262 386.117 -70.2737 385.974 -65.8597C385.867 -63.2352 384.829 -60.3721 381.395 -53.254C376.674 -43.4319 373.49 -35.5981 373.812 -34.5244C373.884 -34.2858 375.1 -35.5186 376.531 -37.2285C381.86 -43.7898 388.335 -53.4131 392.556 -61.0481C395.668 -66.7346 396.777 -68.2059 398.601 -69.2C400.246 -70.0749 400.282 -70.0749 404.038 -68.365C405.469 -67.7287 405.862 -68.0468 407.758 -71.6257C409.368 -74.6479 415.127 -81.8853 418.31 -84.9472C422.639 -89.0829 426.037 -90.9916 428.183 -90.5144C433.513 -89.3215 431.546 -79.2607 424.105 -69.6772C423.032 -68.3252 422.746 -67.6492 422.746 -66.3767C422.746 -64.627 422.818 -64.5872 425.608 -65.4223C428.255 -66.2176 430.007 -66.1779 431.009 -65.303C432.833 -63.6329 431.474 -60.2528 426.573 -54.2879C425.035 -52.419 423.855 -50.9079 423.962 -50.9079C424.069 -50.9079 425.751 -51.5839 427.647 -52.4587C432.583 -54.6458 437.77 -56.4353 439.987 -56.7136C441.597 -56.9125 442.026 -56.8329 442.885 -56.0774C445.353 -53.93 443.493 -51.1862 430.794 -38.3817C420.636 -28.1222 411.299 -17.3457 411.299 -15.8346C411.299 -15.2381 413.052 -15.755 419.92 -18.3398C423.39 -19.6123 426.645 -20.686 427.146 -20.686C427.968 -20.686 429.185 -19.4532 429.185 -18.6182C429.185 -18.4591 428.29 -17.1866 427.217 -15.755C425.429 -13.4486 424.535 -11.7387 424.535 -10.7048C424.535 -9.90949 426.681 -10.4264 429.399 -11.8978C432.583 -13.6077 436.053 -16.0334 442.813 -21.362C449.681 -26.7701 453.902 -28.997 462.594 -31.8204C470.535 -34.3654 476.724 -35.2402 480.05 -34.2063C480.766 -33.9677 481.767 -33.2519 482.268 -32.5759C484.45 -29.7128 482.876 -25.1397 477.832 -19.493C470.356 -11.1025 458.838 -3.4277 445.031 2.41785C437.662 5.51957 433.835 8.46223 433.835 11.047C433.835 12.5979 435.015 12.8762 440.095 12.4786C442.634 12.3195 446.533 12.1604 448.715 12.1207C453.258 12.1207 454.224 12.5979 454.224 14.8247C454.224 17.4095 448.823 21.0679 440.095 24.448C432.44 27.3907 429.936 29.1404 431.51 30.4526C432.797 31.5263 434.729 31.8842 440.989 32.1625C447.857 32.4409 449.61 32.9579 450.611 35.0257C451.076 35.9403 451.04 36.2186 450.432 37.5707C449.466 39.7975 446.462 41.9051 439.522 45.2057C432.583 48.4665 429.077 50.7729 430.007 51.3693C431.116 52.0454 436.446 52.2044 441.525 51.7272C447.678 51.1307 448.501 50.9319 456.728 48.2279C477.046 41.587 498.4 36.8947 515.749 35.1847C530.987 33.6736 539 35.2245 539 39.718C539 46.677 515.034 58.2886 465.849 75.1492C447.535 81.4322 440.953 83.9772 441.49 84.5736C441.597 84.6929 444.172 84.5736 447.213 84.2953C453.58 83.6988 456.442 84.0965 458.445 85.7268C460.376 87.397 459.876 90.2601 457.336 91.6917C455.261 92.9244 454.045 93.1233 447.606 93.4414C441.025 93.7595 438.056 94.3958 436.875 95.708C436.339 96.3045 436.339 96.384 436.875 96.9805C437.34 97.4975 438.485 97.6168 443.958 97.6963C447.535 97.7361 451.255 97.9747 452.257 98.2133C457.837 99.6051 458.946 103.343 454.975 107.479C452.757 109.785 451.076 110.739 448.107 111.296C443.6 112.131 439.236 111.535 432.547 109.149C427.825 107.479 426.43 107.359 426.108 108.711C425.715 110.501 426.108 112.211 427.074 113.046C428.469 114.199 430.472 114.477 437.054 114.517C446.462 114.557 452.364 115.551 461.199 118.533C468.461 121.039 470.75 123.464 468.353 126.129C467.387 127.202 466.064 127.839 461.342 129.39C453.687 131.935 455.655 133.485 467.996 134.599C485.523 136.189 497.435 138.893 505.447 143.109C510.455 145.733 513.174 149.193 512.78 152.414C512.637 153.726 512.244 154.402 510.992 155.714C508.023 158.697 502.371 159.89 495.074 159.094C490.603 158.617 482.84 156.669 480.873 155.595C480.301 155.237 477.189 153.01 473.969 150.624C467.137 145.495 463.667 143.546 461.485 143.546C459.661 143.546 459.518 143.785 458.731 148.119C457.729 153.607 456.227 155.873 453.723 155.873C453.222 155.873 450.11 154.521 446.819 152.851C440.739 149.789 434.908 147.364 434.55 147.801C434.443 147.92 436.732 150.545 439.63 153.647C442.527 156.708 445.138 159.85 445.46 160.566C445.782 161.321 445.997 162.594 445.925 163.508C445.782 165.815 444.494 166.809 441.776 166.769C440.023 166.769 439.093 166.411 435.266 164.304C432.833 162.952 430.508 161.838 430.15 161.838C429.077 161.838 431.259 164.86 436.16 170.11C441.454 175.836 444.101 178.063 448.572 180.568C456.907 185.22 467.602 192.657 473.576 197.945C485.881 208.841 490.173 219.101 483.806 222.282C478.047 225.225 466.422 219.3 454.582 207.41C452.364 205.183 449.681 203.195 448.93 203.195C448.107 203.195 445.997 206.018 445.603 207.648C445.424 208.483 444.888 209.637 444.423 210.233C443.6 211.267 443.564 211.307 441.204 210.909C439.701 210.67 438.843 210.631 438.843 210.869C438.843 211.108 440.273 212.937 442.026 214.925C444.423 217.669 445.603 219.419 446.641 221.765C448.465 225.781 450.826 228.883 455.011 232.82C456.835 234.53 460.663 238.506 463.524 241.568C467.853 246.261 469.713 247.931 474.506 251.43C481.624 256.679 483.162 258.111 486.596 262.843C493.071 271.79 496.254 278.869 495.575 282.805C495.467 283.561 494.859 284.674 494.287 285.311C491.354 288.452 484.021 285.947 474.935 278.749C469.963 274.812 465.849 270.319 460.913 263.439C455.369 255.765 452.328 251.947 450.182 250.038C449.216 249.203 448.322 248.527 448.215 248.527C448.071 248.527 447.964 250.038 447.964 251.907C447.964 255.049 447.893 255.327 446.963 256.361C446.14 257.276 445.675 257.475 444.28 257.435C439.808 257.355 433.298 250.714 426.144 238.984C421.78 231.866 420.6 230.752 419.384 232.701C418.561 233.973 418.704 234.967 419.92 236.995C420.886 238.546 420.993 239.023 420.779 240.574C420.349 243.915 418.847 245.147 416.593 244.113C413.946 242.92 409.082 236.2 401.176 222.839C398.029 217.55 395.99 214.567 394.487 212.977C392.162 210.631 390.016 209.159 388.764 209.159C388.156 209.159 388.049 209.398 388.049 210.79C388.049 212.858 389.694 218.305 391.733 223.157C392.627 225.185 394.952 230.712 396.991 235.405C414.447 276.244 422.531 304.12 417.738 306.983C416.772 307.579 415.914 307.46 414.698 306.625Z" fill="#FFEF60"/>
<path d="M178.434 280.658C176.86 279.465 175.823 277.119 175.644 274.335C175.358 270.12 178.04 265.428 183.37 260.775C184.694 259.622 187.198 257.355 188.986 255.725C192.921 252.106 195.783 250.516 198.394 250.516C199.932 250.516 200.468 250.714 201.148 251.51C202.543 253.021 202.293 254.333 199.324 260.974C195.067 270.398 192.492 274.494 188.736 277.795C184.551 281.453 180.83 282.447 178.434 280.658Z" fill="#FFEF60"/>
<path d="M88.9359 231.07C86.1101 230.036 84.3573 227.253 84.0712 223.197C83.7492 218.703 86.0028 215.204 90.9749 212.42C97.6997 208.722 115.013 203.155 122.882 202.2C124.778 201.962 125.386 202.041 126.71 202.797C128.82 203.91 129.106 204.904 127.747 206.455C125.958 208.523 115.907 217.987 111.722 221.487C104.174 227.809 97.9859 230.991 92.7634 231.269C91.1895 231.348 89.4725 231.269 88.9359 231.07Z" fill="#FFEF60"/>
</g>
<g clip-path="url(#clip4_105_569)" filter="url(#filter3_d_105_569)">
<path d="M173.065 427.7C170.733 428.575 169.615 429.625 159.947 440.02C152.076 448.455 151.785 448.84 151.493 450.975C151.25 452.655 151.348 453.39 151.931 454.23C152.951 455.665 154.068 456.05 157.178 456.05C161.599 456.015 165.874 454.23 172.773 449.435C182.976 442.365 185.746 438.62 184.094 434.035C182.733 430.15 179.041 426.965 175.98 427C175.348 427.035 174.037 427.35 173.065 427.7Z" fill="#4791FF"/>
<path d="M111.168 454.615C101.305 458.99 81.1913 485.17 58.6965 523.04C56.0729 527.45 53.4493 531.44 52.8663 531.93L51.7974 532.805L51.0686 531.44C50.2427 530.005 49.8054 528.43 48.4936 522.445C47.4733 517.755 45.8215 515.55 43.1979 515.55C40.6715 515.55 36.4446 520.415 33.6752 526.575C32.0233 530.215 30.1285 533.05 29.254 533.05C28.9625 533.05 28.2823 532.315 27.6993 531.37C26.8248 530.005 26.6304 529.06 26.6304 526.05C26.6304 523.88 26.9219 521.71 27.3106 520.765C28.6224 517.685 27.3106 516.53 21.5776 515.76C17.205 515.165 13.9984 513.765 14.4356 512.645C15.3587 510.195 16.2818 497.28 16.0389 489.825C15.6988 478.45 14.1927 473.62 10.5002 472.045C9.13986 471.485 8.79977 471.45 7.29363 471.905C1.02618 473.795 -4.26957 488.775 -6.1158 509.81C-6.50448 514.5 -6.99033 515.445 -9.6625 516.6C-11.12 517.23 -11.2172 517.23 -12.4318 516.635C-14.521 515.585 -17.7276 514.5 -18.7965 514.5C-19.3795 514.5 -20.3512 514.885 -20.9828 515.375C-22.0031 516.075 -22.1974 516.565 -22.1974 518.42C-22.1974 519.645 -21.8573 522.025 -21.4686 523.775C-21.0799 525.49 -20.7399 527.87 -20.7399 529.025C-20.7399 530.88 -20.8856 531.195 -22.0516 531.86L-23.412 532.63L-23.6549 538.58C-23.8007 541.87 -24.0922 544.67 -24.3351 544.845C-25.0153 545.335 -27.6875 542.64 -30.8941 538.265C-32.546 535.955 -34.4894 533.82 -35.121 533.54C-36.1899 533.015 -36.4328 533.015 -38.5705 533.785C-40.271 534.38 -41.2427 535.045 -42.0686 536.13L-43.1861 537.67L-44.8865 536.48C-47.7531 534.485 -49.7936 531.93 -51.154 528.675C-54.0205 521.675 -55.4295 521.08 -61.3082 524.265C-64.1262 525.805 -66.5068 526.75 -67.5757 526.75C-68.6932 526.75 -69.179 525.805 -69.9564 522.34C-70.6365 519.4 -71.0738 518.7 -76.7582 511C-84.1431 500.99 -85.8922 498.715 -88.1271 496.475C-93.9087 490.665 -104.549 482.51 -109.845 479.815C-117.132 476.105 -122.282 476.455 -124.274 480.795C-125.392 483.28 -123.934 489.44 -121.068 494.375C-117.181 501.13 -109.456 509.18 -103.14 513.135C-100.565 514.745 -98.4757 516.88 -98.4757 517.895C-98.4757 518.875 -100.273 519.54 -104.014 519.925C-109.796 520.555 -110.816 523.425 -107.172 528.71C-106.055 530.355 -103.286 533.61 -101.002 535.955C-93.0342 544.145 -92.1597 545.09 -92.1597 545.265C-92.1597 545.37 -93.0342 545.825 -94.1516 546.28C-96.6781 547.33 -98.1356 548.975 -97.7469 550.375C-97.6012 551.04 -96.3865 552.23 -94.5889 553.525C-91.188 555.975 -90.5078 557.41 -92.1111 558.565C-93.2771 559.405 -94.5403 559.475 -97.1639 558.81C-100.273 558.005 -102.314 556.78 -104.306 554.505C-107.901 550.445 -111.059 548.45 -114.023 548.38C-115.821 548.345 -116.987 549.08 -118.153 550.9C-118.736 551.845 -119.367 552.3 -119.95 552.3C-120.533 552.3 -123.788 550.2 -128.015 547.12C-137.975 539.91 -143.562 537.005 -148.227 536.655C-150.073 536.48 -150.413 536.585 -151.336 537.425C-153.62 539.49 -152.113 543.55 -146.04 551.88C-142.979 556.15 -142.591 556.85 -142.834 558.145C-143.077 559.79 -144.291 561.4 -145.312 561.4C-145.652 561.4 -149.344 558.46 -153.522 554.82C-162.316 547.19 -164.26 545.79 -168.146 544.11C-171.887 542.5 -175.143 541.625 -182.187 540.365C-185.394 539.805 -188.844 539 -189.864 538.615C-190.933 538.23 -195.888 534.975 -200.893 531.37C-222.124 516.005 -238.497 507.395 -247.34 506.905C-250.206 506.73 -250.498 506.765 -251.955 507.71C-254.093 509.075 -254.385 510.79 -252.976 513.8C-249.137 522.095 -232.667 535.675 -211.193 548.275C-208.909 549.605 -202.01 554.26 -195.888 558.6C-189.718 562.975 -182.382 567.84 -179.515 569.415C-175.969 571.34 -174.268 572.53 -174.268 572.985C-174.268 573.37 -175.24 574.42 -176.406 575.33C-177.62 576.24 -178.738 577.43 -178.884 577.955C-179.418 579.425 -176.795 581.035 -172.228 582.05C-167.855 583.03 -166.009 584.255 -166.009 586.18C-166.009 586.915 -166.349 587.825 -166.737 588.21C-169.021 590.38 -166.495 592.2 -155.32 596.505C-146.04 600.075 -141.862 602.105 -143.465 602.28C-145.409 602.49 -154.251 601.335 -158.527 600.32C-160.907 599.725 -170.138 597.45 -179.029 595.21C-210.853 587.195 -235.631 581.875 -242.87 581.455C-247.097 581.21 -248.117 581.525 -248.117 583.065C-248.117 584.675 -244.279 586.845 -233.493 591.36C-225.914 594.475 -196.083 605.605 -184.568 609.56C-180.244 611.03 -176.746 612.395 -176.795 612.57C-176.892 612.745 -178.398 613.725 -180.098 614.705C-181.896 615.755 -183.645 617.12 -184.179 617.89L-185.103 619.29L-183.791 621.985C-183.062 623.49 -182.528 625.205 -182.625 625.835C-182.965 628.635 -188.989 628.88 -202.447 626.675C-216.537 624.33 -218.237 624.085 -225.039 623.385C-250.158 620.83 -271.146 621.985 -284.362 626.675C-293.495 629.895 -297.528 634.27 -295.245 638.575C-294.03 640.885 -289.852 643.23 -284.604 644.525C-277.22 646.38 -274.839 646.45 -240.101 646.065L-226.983 645.925L-218.335 647.43C-208.229 649.18 -204.196 649.6 -198.561 649.53C-192.147 649.425 -189.621 650.86 -189.621 654.675C-189.621 657.16 -190.836 658.595 -193.605 659.435C-201.33 661.745 -206.966 664.93 -209.152 668.22C-210.512 670.355 -210.512 671.37 -209.104 672.56C-208.229 673.26 -207.403 673.54 -205.557 673.645C-203.079 673.82 -202.107 673.61 -190.836 670.775C-186.657 669.725 -184.714 669.445 -179.758 669.2C-176.454 669.025 -172.568 668.99 -171.11 669.095C-168.535 669.305 -168.438 669.34 -169.215 669.935C-170.673 671.09 -177.815 673.33 -186.803 675.465C-200.99 678.86 -206.626 681.135 -206.237 683.41C-205.946 685.37 -202.01 685.825 -195.548 684.635C-193.508 684.25 -190.69 683.515 -189.232 682.955C-186.657 681.975 -186.609 681.975 -178.446 682.08C-169.361 682.185 -167.806 682.43 -170.381 683.375C-173.296 684.46 -177.961 685.615 -188.212 687.715C-213.768 693 -226.837 697.06 -232.23 701.365C-234.562 703.22 -234.902 704.34 -233.736 705.915C-229.655 711.41 -204.294 709.94 -186.026 703.15C-183.402 702.205 -177.815 699.685 -173.539 697.515C-163.677 692.615 -158.381 690.235 -151.676 687.75C-145.992 685.65 -141.425 684.46 -139.821 684.67C-138.801 684.775 -138.801 684.775 -139.967 686.525C-141.279 688.52 -145.166 692.3 -150.17 696.325C-155.223 700.385 -155.806 701.015 -155.806 702.31C-155.806 705.075 -152.745 705.775 -141.473 705.495L-133.214 705.285L-134.914 705.915C-135.886 706.3 -139.821 707.245 -143.66 708.05C-157.069 710.815 -162.316 712.425 -165.28 714.7C-166.057 715.33 -169.312 717.08 -172.47 718.62C-175.629 720.125 -178.641 721.7 -179.175 722.085C-180.39 722.96 -180.39 724.36 -179.175 724.85C-178.058 725.27 -174.851 725.27 -171.936 724.885C-169.993 724.605 -169.895 724.64 -170.187 725.34C-170.673 726.355 -172.519 728.42 -173.588 729.085C-174.122 729.4 -175.774 730.17 -177.329 730.765C-189.232 735.595 -203.419 746.83 -204.682 752.395C-204.974 753.655 -204.828 753.97 -203.662 754.775C-202.593 755.58 -202.107 755.685 -200.601 755.51C-197.929 755.23 -193.896 753.62 -187.435 750.225C-181.604 747.215 -178.641 745.185 -178.641 744.31C-178.641 743.575 -175.774 740.95 -174.997 740.95C-173.928 740.95 -174.074 741.265 -176.017 743.61C-179.175 747.32 -178.689 749.7 -174.754 749.7C-171.985 749.7 -168.535 747.635 -158.235 739.9C-149.441 733.285 -149.247 733.18 -148.955 734.195C-148.275 736.715 -146.623 736.715 -143.174 734.195L-140.696 732.375L-140.987 733.6C-141.182 734.265 -143.805 738.57 -146.866 743.19C-149.927 747.775 -152.988 752.885 -153.62 754.53C-157.215 763.385 -154.446 771.015 -148.324 769.16C-146.089 768.495 -143.562 765.975 -140.502 761.425C-137.684 757.155 -134.914 754.355 -130.736 751.45L-128.015 749.525L-128.258 751.135C-128.453 752.01 -129.57 754.67 -130.785 757.015C-131.999 759.395 -133.214 762.44 -133.457 763.84C-133.748 765.205 -134.526 769.3 -135.254 772.975C-137.004 781.795 -137.149 790.51 -135.595 792.4C-135.06 793.065 -134.04 793.835 -133.311 794.08C-126.898 796.32 -114.557 780.57 -106.978 760.55C-105.083 755.405 -104.5 754.25 -103.869 754.25C-103.188 754.25 -101.488 757.435 -100.856 759.99C-100.128 763.035 -98.67 764.365 -95.6578 764.645C-92.8398 764.925 -89.5847 763.98 -88.3215 762.545C-87.8356 761.915 -87.1554 760.48 -86.8153 759.325C-86.5238 758.17 -85.3092 754.46 -84.1431 751.1C-82.9771 747.74 -81.9082 744.275 -81.7139 743.4C-81.1795 740.915 -80.4021 738.85 -80.0134 738.85C-78.9931 738.85 -76.6125 744.975 -75.3007 751.1C-74.0375 756.98 -74.0861 772.415 -75.3493 778.05C-76.2238 782.005 -76.2238 782.11 -75.3007 785.4L-74.329 788.725L-75.4465 792.505C-80.062 807.87 -78.2644 818.475 -70.7823 820.085C-62.5229 821.87 -54.7493 811.09 -54.7493 797.895V794.465L-53.2917 795.655C-50.1337 798.28 -47.1215 798.07 -45.1295 795.13C-44.012 793.52 -43.1861 790.65 -42.1658 784.56C-41.2913 779.31 -38.862 776.86 -36.4814 778.89C-35.1696 779.975 -34.5866 782.285 -35.0238 784.98C-35.8983 790.65 -35.8983 791.91 -35.121 794.115C-34.1493 796.88 -34.1493 798.28 -35.1696 803.04C-35.8498 806.33 -35.8983 807.52 -35.4125 811.125C-34.295 819.56 -30.8941 823.9 -25.3554 823.9C-21.42 823.9 -16.3672 820.19 -13.9866 815.5C-11.0229 809.655 -11.5087 803.565 -15.3469 798.035C-17.2417 795.375 -17.2417 794.85 -15.4927 794.85C-14.1809 794.885 -11.8974 795.62 -7.47618 797.44C-5.87287 798.105 -4.80401 798.35 -3.97806 798.21C-1.74316 797.79 -1.5974 796.985 -3.00636 791.455C-4.65825 784.945 -4.65825 779.24 -2.90919 778.015C-1.54882 777 -0.139856 777.28 2.72665 779.1C6.46769 781.48 7.43939 783.37 7.92524 789.46C8.21675 792.33 8.84835 796.18 9.38278 798C10.3059 801.22 10.7917 805 11.812 817.425C12.395 824.32 12.8809 826 15.9903 831.95C22.5979 844.69 30.1771 852.11 37.7078 853.335C41.2545 853.895 43.8295 853.335 46.7932 851.34C51.7002 848.05 54.1781 842.835 54.2266 835.8C54.2266 828.45 51.9432 823.34 45.87 817.285C40.4771 811.93 35.57 804.02 33.1408 796.775C32.655 795.235 32.2177 793.45 32.2177 792.82V791.7L36.0073 791.665C38.0479 791.665 40.5257 791.49 41.4488 791.245C43.8781 790.65 43.8781 789.46 41.546 785.19C37.4649 777.805 34.2583 769.125 35.3271 768.355C36.5417 767.48 43.6351 772.345 51.9432 779.8C56.8988 784.21 59.3281 785.75 62.9233 786.66C68.5592 788.095 72.3488 786.345 72.1545 782.46C72.0087 780.15 70.5998 777.63 65.9356 771.365C59.5224 762.72 55.1983 755.825 55.6356 754.88C55.7328 754.67 57.3847 755.755 59.3281 757.26C66.5672 763.035 75.3611 771.505 81.0941 778.225C85.321 783.23 86.8271 784.525 89.3049 785.4C91.5399 786.17 91.5884 786.17 96.6899 784.665C98.6332 784.105 99.1677 784.385 101.743 787.535C103.929 790.195 111.751 796.565 116.075 799.26C121.954 802.9 126.57 804.58 129.485 804.16C136.724 803.11 134.052 794.255 123.946 785.82C122.488 784.63 122.1 784.035 122.1 782.915C122.1 781.375 122.197 781.34 125.987 782.075C129.582 782.775 131.962 782.74 133.323 781.97C135.801 780.5 133.954 777.525 127.298 772.275C125.209 770.63 123.606 769.3 123.752 769.3C123.897 769.3 126.181 769.895 128.756 770.665C135.461 772.59 142.505 774.165 145.518 774.41C147.704 774.585 148.287 774.515 149.453 773.85C152.805 771.96 150.279 769.545 133.031 758.275C119.233 749.245 106.553 739.76 106.553 738.43C106.553 737.905 108.933 738.36 118.262 740.635C122.974 741.755 127.395 742.7 128.076 742.7C129.193 742.7 130.845 741.615 130.845 740.88C130.845 740.74 129.63 739.62 128.173 738.36C125.744 736.33 124.529 734.825 124.529 733.915C124.529 733.215 127.444 733.67 131.137 734.965C135.461 736.47 140.173 738.605 149.356 743.295C158.684 748.055 164.417 750.015 176.223 752.5C187.009 754.74 195.414 755.51 199.933 754.6C200.904 754.39 202.265 753.76 202.945 753.165C205.909 750.645 203.771 746.62 196.92 741.65C186.766 734.265 171.122 727.51 152.368 722.365C142.36 719.635 137.161 717.045 137.161 714.77C137.161 713.405 138.764 713.16 145.663 713.51C149.113 713.65 154.409 713.79 157.372 713.825C163.543 713.825 164.854 713.405 164.854 711.445C164.854 709.17 157.518 705.95 145.663 702.975C135.266 700.385 131.865 698.845 134.003 697.69C135.752 696.745 138.376 696.43 146.878 696.185C156.206 695.94 158.587 695.485 159.947 693.665C160.579 692.86 160.53 692.615 159.704 691.425C158.393 689.465 154.312 687.61 144.886 684.705C135.461 681.835 130.699 679.805 131.962 679.28C133.469 678.685 140.708 678.545 147.607 678.965C155.963 679.49 157.081 679.665 168.255 682.045C195.852 687.89 224.857 692.02 248.42 693.525C269.118 694.855 280.001 693.49 280.001 689.535C280.001 683.41 247.449 673.19 180.645 658.35C155.769 652.82 146.829 650.58 147.558 650.055C147.704 649.95 151.202 650.055 155.332 650.3C163.98 650.825 167.867 650.475 170.587 649.04C173.211 647.57 172.531 645.05 169.081 643.79C166.263 642.705 164.612 642.53 155.866 642.25C146.927 641.97 142.894 641.41 141.291 640.255C140.562 639.73 140.562 639.66 141.291 639.135C141.922 638.68 143.477 638.575 150.911 638.505C155.769 638.47 160.822 638.26 162.182 638.05C169.762 636.825 171.268 633.535 165.875 629.895C162.862 627.865 160.579 627.025 156.546 626.535C150.425 625.8 144.497 626.325 135.412 628.425C128.999 629.895 127.104 630 126.667 628.81C126.132 627.235 126.667 625.73 127.979 624.995C129.873 623.98 132.594 623.735 141.534 623.7C154.312 623.665 162.328 622.79 174.328 620.165C184.191 617.96 187.301 615.825 184.045 613.48C182.734 612.535 180.936 611.975 174.523 610.61C164.126 608.37 166.798 607.005 183.56 606.025C207.366 604.625 223.545 602.245 234.428 598.535C241.23 596.225 244.922 593.18 244.388 590.345C244.194 589.19 243.659 588.595 241.959 587.44C237.926 584.815 230.25 583.765 220.338 584.465C214.265 584.885 203.722 586.6 201.05 587.545C200.273 587.86 196.046 589.82 191.673 591.92C182.394 596.435 177.681 598.15 174.717 598.15C172.239 598.15 172.045 597.94 170.976 594.125C169.616 589.295 167.575 587.3 164.174 587.3C163.494 587.3 159.267 588.49 154.797 589.96C146.538 592.655 138.619 594.79 138.133 594.405C137.987 594.3 141.096 591.99 145.032 589.26C148.967 586.565 152.514 583.8 152.951 583.17C153.388 582.505 153.68 581.385 153.583 580.58C153.388 578.55 151.639 577.675 147.947 577.71C145.566 577.71 144.303 578.025 139.104 579.88C135.801 581.07 132.643 582.05 132.157 582.05C130.699 582.05 133.663 579.39 140.319 574.77C147.51 569.73 151.105 567.77 157.178 565.565C168.498 561.47 183.025 554.925 191.139 550.27C207.852 540.68 213.682 531.65 205.034 528.85C197.212 526.26 181.422 531.475 165.34 541.94C162.328 543.9 158.684 545.65 157.664 545.65C156.546 545.65 153.68 543.165 153.145 541.73C152.903 540.995 152.174 539.98 151.542 539.455C150.425 538.545 150.376 538.51 147.17 538.86C145.129 539.07 143.963 539.105 143.963 538.895C143.963 538.685 145.906 537.075 148.287 535.325C151.542 532.91 153.145 531.37 154.554 529.305C157.032 525.77 160.239 523.04 165.923 519.575C168.401 518.07 173.6 514.57 177.487 511.875C183.365 507.745 185.892 506.275 192.402 503.195C202.07 498.575 204.16 497.315 208.824 493.15C217.618 485.275 221.942 479.045 221.019 475.58C220.873 474.915 220.047 473.935 219.27 473.375C215.286 470.61 205.326 472.815 192.985 479.15C186.232 482.615 180.645 486.57 173.94 492.625C166.409 499.38 162.279 502.74 159.364 504.42C158.053 505.155 156.838 505.75 156.692 505.75C156.498 505.75 156.352 504.42 156.352 502.775C156.352 500.01 156.255 499.765 154.992 498.855C153.874 498.05 153.243 497.875 151.348 497.91C145.275 497.98 136.432 503.825 126.715 514.15C120.788 520.415 119.185 521.395 117.533 519.68C116.415 518.56 116.61 517.685 118.262 515.9C119.573 514.535 119.719 514.115 119.428 512.75C118.845 509.81 116.804 508.725 113.743 509.635C110.148 510.685 103.54 516.6 92.8031 528.36C88.5276 533.015 85.7582 535.64 83.7177 537.04C80.5597 539.105 77.6446 540.4 75.9441 540.4C75.1182 540.4 74.9724 540.19 74.9724 538.965C74.9724 537.145 77.2073 532.35 79.9766 528.08C81.1913 526.295 84.3493 521.43 87.1186 517.3C110.828 481.355 121.808 456.82 115.298 454.3C113.986 453.775 112.82 453.88 111.168 454.615Z" fill="#4791FF"/>
</g>
</g>
<rect x="5" y="5" width="390" height="690" rx="20" stroke="black" stroke-width="10"/>
<defs>
<filter id="filter0_d_105_569" x="38" y="410" width="619" height="547" filterUnits="userSpaceOnUse" color-interpolation-filters="sRGB">
<feFlood flood-opacity="0" result="BackgroundImageFix"/>
<feColorMatrix in="SourceAlpha" type="matrix" values="0 0 0 0 0 0 0 0 0 0 0 0 0 0 0 0 0 0 127 0" result="hardAlpha"/>
<feOffset dy="4"/>
<feGaussianBlur stdDeviation="2"/>
<feComposite in2="hardAlpha" operator="out"/>
<feColorMatrix type="matrix" values="0 0 0 0 0 0 0 0 0 0 0 0 0 0 0 0 0 0 0.25 0"/>
<feBlend mode="normal" in2="BackgroundImageFix" result="effect1_dropShadow_105_569"/>
<feBlend mode="normal" in="SourceGraphic" in2="effect1_dropShadow_105_569" result="shape"/>
</filter>
<filter id="filter1_d_105_569" x="-141" y="-205" width="425" height="563" filterUnits="userSpaceOnUse" color-interpolation-filters="sRGB">
<feFlood flood-opacity="0" result="BackgroundImageFix"/>
<feColorMatrix in="SourceAlpha" type="matrix" values="0 0 0 0 0 0 0 0 0 0 0 0 0 0 0 0 0 0 127 0" result="hardAlpha"/>
<feOffset dy="4"/>
<feGaussianBlur stdDeviation="2"/>
<feComposite in2="hardAlpha" operator="out"/>
<feColorMatrix type="matrix" values="0 0 0 0 0 0 0 0 0 0 0 0 0 0 0 0 0 0 0.25 0"/>
<feBlend mode="normal" in2="BackgroundImageFix" result="effect1_dropShadow_105_569"/>
<feBlend mode="normal" in="SourceGraphic" in2="effect1_dropShadow_105_569" result="shape"/>
</filter>
<filter id="filter2_d_105_569" x="80" y="-171" width="463" height="517" filterUnits="userSpaceOnUse" color-interpolation-filters="sRGB">
<feFlood flood-opacity="0" result="BackgroundImageFix"/>
<feColorMatrix in="SourceAlpha" type="matrix" values="0 0 0 0 0 0 0 0 0 0 0 0 0 0 0 0 0 0 127 0" result="hardAlpha"/>
<feOffset dy="4"/>
<feGaussianBlur stdDeviation="2"/>
<feComposite in2="hardAlpha" operator="out"/>
<feColorMatrix type="matrix" values="0 0 0 0 0 0 0 0 0 0 0 0 0 0 0 0 0 0 0.25 0"/>
<feBlend mode="normal" in2="BackgroundImageFix" result="effect1_dropShadow_105_569"/>
<feBlend mode="normal" in="SourceGraphic" in2="effect1_dropShadow_105_569" result="shape"/>
</filter>
<filter id="filter3_d_105_569" x="-342" y="427" width="626" height="456" filterUnits="userSpaceOnUse" color-interpolation-filters="sRGB">
<feFlood flood-opacity="0" result="BackgroundImageFix"/>
<feColorMatrix in="SourceAlpha" type="matrix" values="0 0 0 0 0 0 0 0 0 0 0 0 0 0 0 0 0 0 127 0" result="hardAlpha"/>
<feOffset dy="4"/>
<feGaussianBlur stdDeviation="2"/>
<feComposite in2="hardAlpha" operator="out"/>
<feColorMatrix type="matrix" values="0 0 0 0 0 0 0 0 0 0 0 0 0 0 0 0 0 0 0.25 0"/>
<feBlend mode="normal" in2="BackgroundImageFix" result="effect1_dropShadow_105_569"/>
<feBlend mode="normal" in="SourceGraphic" in2="effect1_dropShadow_105_569" result="shape"/>
</filter>
<clipPath id="clip0_105_569">
<rect width="400" height="700" rx="25" fill="white"/>
</clipPath>
<clipPath id="clip1_105_569">
<rect width="611" height="539" fill="white" transform="translate(42 410)"/>
</clipPath>
<clipPath id="clip2_105_569">
<rect width="417" height="555" fill="white" transform="matrix(-1 0 0 -1 280 350)"/>
</clipPath>
<clipPath id="clip3_105_569">
<rect width="455" height="509" fill="white" transform="matrix(1 0 0 -1 84 338)"/>
</clipPath>
<clipPath id="clip4_105_569">
<rect width="618" height="448" fill="white" transform="translate(-338 427)"/>
</clipPath>
</defs>
</svg>
