<svg width="400" height="700" viewBox="0 0 400 700" fill="none" xmlns="http://www.w3.org/2000/svg">
<g clip-path="url(#clip0_105_901)">
<rect width="400" height="700" rx="25" fill="white"/>
<g filter="url(#filter0_d_105_901)">
<path d="M185.759 609.574C192.087 600.772 208.72 597.76 217.588 592.153C251.464 570.738 278.607 540.819 293.884 503.533C302.37 482.823 308.902 455.727 309.108 433.13C309.295 412.697 305.31 393.04 306.35 372.361C308.059 338.369 307.588 305.319 311.162 271.4C314.923 235.717 317.586 199.864 312.095 164.254C307.906 137.091 299.681 104.503 274.242 89.3604C260.719 81.3107 242.648 79.7094 227.347 78.2121C194.919 75.0386 160.683 75.1099 128.934 82.9062C107.419 88.1894 90.6844 92.0591 76.7362 110.046C65.5517 124.469 60.6244 145.513 58.0105 163.232C54.9531 183.959 56.3392 208.779 62.1123 229.013C68.0915 249.97 88.8529 261.375 108.623 266.386C136.2 273.376 166.922 274.89 195.204 275.608C221.454 276.275 248.086 275.75 274.267 274.061" stroke="#FFEF60" stroke-width="10" stroke-linecap="round"/>
</g>
</g>
<rect x="5" y="5" width="390" height="690" rx="20" stroke="#FFEF60" stroke-width="10"/>
<defs>
<filter id="filter0_d_105_901" x="47.4307" y="71.2451" width="276.792" height="551.33" filterUnits="userSpaceOnUse" color-interpolation-filters="sRGB">
<feFlood flood-opacity="0" result="BackgroundImageFix"/>
<feColorMatrix in="SourceAlpha" type="matrix" values="0 0 0 0 0 0 0 0 0 0 0 0 0 0 0 0 0 0 127 0" result="hardAlpha"/>
<feOffset dy="4"/>
<feGaussianBlur stdDeviation="2"/>
<feComposite in2="hardAlpha" operator="out"/>
<feColorMatrix type="matrix" values="0 0 0 0 0 0 0 0 0 0 0 0 0 0 0 0 0 0 0.25 0"/>
<feBlend mode="normal" in2="BackgroundImageFix" result="effect1_dropShadow_105_901"/>
<feBlend mode="normal" in="SourceGraphic" in2="effect1_dropShadow_105_901" result="shape"/>
</filter>
<clipPath id="clip0_105_901">
<rect width="400" height="700" rx="25" fill="white"/>
</clipPath>
</defs>
</svg>
